<?xml version="1.0" standalone="no"?>
<!DOCTYPE svg PUBLIC "-//W3C//DTD SVG 20010904//EN"
 "http://www.w3.org/TR/2001/REC-SVG-20010904/DTD/svg10.dtd">
<svg version="1.0" xmlns="http://www.w3.org/2000/svg"
 width="275.000000pt" height="183.000000pt" viewBox="0 0 275.000000 183.000000"
 preserveAspectRatio="xMidYMid meet">
<metadata>
Created by potrace 1.10, written by Peter Selinger 2001-2011
</metadata>
<g transform="translate(0.000000,183.000000) scale(0.100000,-0.100000)"
fill="#000000" stroke="none">
<path d="M2156 1814 c-9 -24 -2 -26 12 -4 7 11 8 20 3 20 -5 0 -12 -7 -15 -16z"/>
<path d="M2240 1815 c0 -8 -6 -14 -12 -12 -7 1 -26 -24 -42 -55 -16 -32 -35
-58 -42 -58 -6 0 -14 -7 -18 -15 -6 -18 -5 -18 28 -5 15 5 34 26 46 52 11 24
34 58 51 76 27 29 28 32 10 32 -12 0 -21 -7 -21 -15z"/>
<path d="M2420 1805 c-32 -34 -17 -45 18 -13 15 14 34 28 42 31 9 3 4 6 -11 6
-15 1 -35 -9 -49 -24z"/>
<path d="M2560 1819 c0 -5 -4 -7 -10 -4 -18 11 -70 -28 -70 -52 0 -20 4 -23
28 -17 37 9 40 14 9 14 -15 0 -27 5 -27 11 0 5 4 8 9 5 5 -3 14 1 21 10 7 8
19 13 27 10 8 -3 24 3 35 14 l22 20 -22 0 c-12 0 -22 -5 -22 -11z"/>
<path d="M2658 1823 c7 -3 16 -2 19 1 4 3 -2 6 -13 5 -11 0 -14 -3 -6 -6z"/>
<path d="M2366 1811 c-4 -6 -12 -9 -17 -6 -5 4 -9 0 -9 -8 0 -25 -110 -182
-132 -187 -36 -9 -99 -191 -82 -235 10 -24 21 -17 21 13 -1 28 3 44 25 122 16
57 32 84 46 79 8 -3 7 -13 -3 -33 -9 -16 -13 -31 -11 -34 3 -2 1 -15 -4 -28
-7 -18 -6 -22 5 -17 11 4 15 -2 15 -21 0 -27 -15 -36 -23 -13 -2 6 -2 2 -1
-10 2 -12 0 -25 -6 -28 -12 -8 -13 -25 -1 -25 4 0 19 20 31 44 22 41 23 45 7
60 -15 16 -16 20 -1 49 48 101 89 173 102 183 8 6 12 16 8 22 -4 7 -1 12 8 12
9 0 16 5 16 10 0 6 7 10 15 10 17 0 19 18 6 39 -6 9 -11 10 -15 2z"/>
<path d="M2262 1750 c-23 -31 -27 -40 -14 -40 4 0 17 16 30 35 27 43 14 47
-16 5z"/>
<path d="M2670 1765 c0 -8 4 -15 10 -15 5 0 7 7 4 15 -4 8 -8 15 -10 15 -2 0
-4 -7 -4 -15z"/>
<path d="M2590 1740 c0 -26 17 -34 23 -11 3 12 -1 22 -9 25 -9 3 -14 -2 -14
-14z"/>
<path d="M2100 1739 c0 -5 5 -7 10 -4 6 3 10 8 10 11 0 2 -4 4 -10 4 -5 0 -10
-5 -10 -11z"/>
<path d="M2426 1727 c-12 -12 -21 -16 -23 -10 -4 10 -25 -9 -70 -62 -7 -8 -13
-18 -13 -23 0 -5 -6 -15 -14 -21 -8 -7 -14 -26 -14 -43 1 -16 -4 -33 -11 -37
-15 -10 -25 -67 -13 -75 11 -7 53 80 46 97 -3 8 1 21 8 28 7 8 19 26 25 42 7
15 17 27 23 27 5 0 10 9 10 19 0 23 29 36 36 17 4 -10 13 -5 35 16 28 29 31
49 6 47 -7 0 -21 -10 -31 -22z"/>
<path d="M2540 1720 c0 -5 5 -10 10 -10 6 0 10 5 10 10 0 6 -4 10 -10 10 -5 0
-10 -4 -10 -10z"/>
<path d="M2666 1717 c3 -10 9 -15 12 -12 3 3 0 11 -7 18 -10 9 -11 8 -5 -6z"/>
<path d="M2720 1720 c0 -5 7 -7 15 -4 8 4 15 8 15 10 0 2 -7 4 -15 4 -8 0 -15
-4 -15 -10z"/>
<path d="M2080 1701 c0 -11 -6 -22 -12 -24 -8 -3 -6 -6 5 -6 12 -1 17 7 17 24
0 14 -2 25 -5 25 -3 0 -5 -9 -5 -19z"/>
<path d="M2601 1678 c-1 -16 4 -28 9 -28 12 0 12 8 0 35 -8 18 -9 17 -9 -7z"/>
<path d="M2708 1688 c-5 -12 -1 -19 13 -23 11 -4 23 -4 26 -1 4 3 -1 6 -10 6
-8 0 -17 8 -19 18 -3 16 -4 16 -10 0z"/>
<path d="M2201 1656 c-19 -20 -20 -24 -6 -29 18 -7 59 29 50 43 -9 15 -20 12
-44 -14z"/>
<path d="M2620 1631 c0 -6 5 -13 10 -16 17 -11 11 -43 -10 -50 -11 -3 -20 -11
-20 -16 0 -15 12 -10 36 16 14 15 29 22 38 19 9 -4 4 7 -11 25 -28 31 -43 39
-43 22z"/>
<path d="M2700 1634 c0 -10 36 -54 45 -54 3 0 5 10 4 23 0 13 -3 16 -6 8 -4
-11 -10 -8 -24 10 -10 13 -19 19 -19 13z"/>
<path d="M2037 1623 c-12 -12 -7 -22 8 -17 8 4 15 10 15 15 0 11 -14 12 -23 2z"/>
<path d="M2108 1605 c-19 -16 -24 -26 -16 -31 6 -4 14 -2 16 4 2 7 10 12 18
12 8 0 14 2 14 4 0 2 3 11 6 20 9 23 -7 19 -38 -9z"/>
<path d="M2455 1620 c-3 -6 1 -7 9 -4 18 7 21 14 7 14 -6 0 -13 -4 -16 -10z"/>
<path d="M2425 1590 c-3 -5 -2 -10 4 -10 5 0 13 5 16 10 3 6 2 10 -4 10 -5 0
-13 -4 -16 -10z"/>
<path d="M2530 1596 c0 -2 7 -6 15 -10 8 -3 15 -1 15 4 0 6 -7 10 -15 10 -8 0
-15 -2 -15 -4z"/>
<path d="M1996 1574 c-9 -24 -4 -24 18 -3 16 16 17 19 4 19 -9 0 -19 -7 -22
-16z"/>
<path d="M2504 1577 c-3 -9 -14 -17 -24 -17 -9 0 -25 -9 -34 -19 -10 -11 -28
-22 -41 -25 -12 -3 -26 -13 -29 -22 -4 -10 21 -1 72 27 92 49 88 47 74 61 -9
9 -13 7 -18 -5z"/>
<path d="M2698 1563 c-24 -6 -23 -23 2 -23 11 0 20 7 20 15 0 8 -1 14 -2 14
-2 -1 -11 -3 -20 -6z"/>
<path d="M976 1545 c-11 -8 -15 -15 -10 -15 6 0 19 7 30 15 10 8 15 14 9 14
-5 0 -19 -6 -29 -14z"/>
<path d="M2080 1534 c0 -8 5 -12 10 -9 6 3 10 10 10 16 0 5 -4 9 -10 9 -5 0
-10 -7 -10 -16z"/>
<path d="M2550 1525 c-8 -9 -8 -15 -2 -15 12 0 26 19 19 26 -2 2 -10 -2 -17
-11z"/>
<path d="M2740 1526 c0 -8 -5 -16 -12 -18 -7 -3 -6 -7 5 -11 13 -5 17 -1 17
18 0 14 -2 25 -5 25 -3 0 -5 -6 -5 -14z"/>
<path d="M2008 1513 c7 -3 16 -2 19 1 4 3 -2 6 -13 5 -11 0 -14 -3 -6 -6z"/>
<path d="M2643 1513 c9 -2 23 -2 30 0 6 3 -1 5 -18 5 -16 0 -22 -2 -12 -5z"/>
<path d="M1340 1506 c0 -2 7 -7 16 -10 8 -3 12 -2 9 4 -6 10 -25 14 -25 6z"/>
<path d="M1545 1490 c-3 -6 1 -7 9 -4 18 7 21 14 7 14 -6 0 -13 -4 -16 -10z"/>
<path d="M2072 1483 c-16 -17 -15 -30 3 -37 8 -3 15 0 15 6 0 6 7 19 16 29 15
17 15 18 -3 16 -11 0 -25 -7 -31 -14z"/>
<path d="M2641 1484 c0 -11 3 -14 6 -6 3 7 2 16 -1 19 -3 4 -6 -2 -5 -13z"/>
<path d="M1640 1476 c0 -2 9 -6 20 -9 11 -3 20 -1 20 4 0 5 -9 9 -20 9 -11 0
-20 -2 -20 -4z"/>
<path d="M2467 1469 c8 -8 16 -8 30 0 16 9 14 10 -11 11 -22 0 -27 -3 -19 -11z"/>
<path d="M2586 1473 c-12 -12 -5 -23 14 -23 11 0 20 4 20 9 0 11 -26 22 -34
14z"/>
<path d="M1950 1446 c-95 -38 -236 -110 -219 -114 8 -1 35 6 60 17 24 11 46
16 47 11 2 -6 8 -8 13 -4 14 8 10 -12 -5 -25 -7 -6 -21 -9 -30 -5 -9 3 -16 2
-16 -3 0 -6 -11 -15 -25 -21 -28 -13 -35 -38 -7 -27 28 11 34 11 39 -1 2 -6
-8 -16 -22 -22 -15 -7 -23 -17 -20 -22 4 -7 39 7 90 35 93 51 111 55 95 25 -6
-11 -14 -20 -19 -20 -5 0 -40 -18 -79 -39 -65 -35 -72 -37 -84 -22 -18 21 -42
73 -40 87 1 5 -18 34 -43 63 -25 29 -45 47 -46 39 0 -7 -5 -3 -11 9 -15 31
-81 55 -126 47 -21 -4 -45 -8 -54 -10 -9 -1 -38 -12 -64 -23 -25 -12 -50 -18
-55 -15 -5 3 -9 0 -9 -5 0 -6 -11 -11 -25 -11 -14 0 -25 -4 -25 -10 0 -5 -9
-10 -20 -10 -12 0 -34 -7 -49 -14 -15 -8 -43 -13 -62 -11 -19 2 -28 1 -20 -2
9 -4 2 -11 -20 -20 -22 -9 -35 -10 -37 -3 -4 12 -22 3 -22 -11 0 -6 6 -7 13
-3 8 5 9 4 2 -4 -5 -5 -19 -12 -29 -14 -11 -1 -21 -9 -24 -17 -4 -11 2 -12 24
-7 16 4 34 13 39 20 16 20 45 27 67 15 11 -6 22 -8 25 -5 3 3 -5 9 -17 14 -14
5 -19 11 -13 15 13 8 73 -42 73 -61 0 -9 -8 -5 -20 9 -10 13 -19 19 -20 13 0
-5 6 -16 13 -23 9 -11 7 -10 -10 0 -13 8 -23 17 -23 21 0 16 -31 7 -92 -29
-78 -45 -73 -42 -64 -50 4 -4 10 -3 14 2 4 6 17 16 30 23 21 12 22 11 16 -15
-7 -29 -20 -43 -42 -43 -7 0 -10 5 -6 12 5 7 3 8 -7 2 -22 -13 -33 -13 -48 4
-13 13 -12 14 13 8 24 -6 26 -5 18 11 -8 13 -6 20 6 30 14 10 15 12 2 13 -13
0 -13 1 0 11 13 9 13 10 0 6 -8 -2 -14 -10 -13 -16 2 -6 -6 -12 -17 -12 -11
-1 -24 -3 -30 -4 -5 -1 -14 -3 -20 -4 -5 0 -10 -8 -10 -17 0 -8 4 -13 9 -9 15
9 24 -14 11 -29 -8 -11 -8 -15 2 -19 7 -2 9 -8 5 -13 -4 -5 -12 -2 -16 5 -6 9
-11 10 -15 2 -4 -6 -2 -11 4 -11 6 0 8 -5 5 -10 -4 -6 -2 -9 3 -8 6 2 10 -1
11 -7 2 -16 -21 -11 -33 7 -8 14 -5 22 14 43 13 14 19 25 13 25 -6 0 -16 -7
-23 -15 -7 -8 -18 -15 -26 -15 -7 0 -17 -6 -21 -13 -11 -18 -62 -51 -69 -44
-5 5 59 57 102 83 11 7 16 15 12 19 -5 6 -55 -19 -68 -36 -3 -3 -23 -18 -45
-32 -22 -15 -35 -27 -30 -27 15 0 -29 -28 -50 -32 -24 -4 -45 -20 -39 -30 2
-4 -5 -10 -17 -13 -11 -4 -18 -9 -15 -12 3 -4 32 10 64 30 34 21 74 37 95 39
20 1 37 7 37 13 0 5 11 18 24 27 23 17 24 16 29 -2 3 -11 2 -20 -1 -20 -4 0
-19 -10 -34 -23 -15 -13 -38 -32 -52 -42 -17 -13 -22 -23 -15 -31 6 -8 2 -17
-16 -28 -14 -9 -25 -21 -25 -26 0 -5 -18 -35 -40 -66 -22 -32 -40 -63 -40 -71
0 -15 -16 -17 -25 -3 -6 10 95 163 115 175 6 4 10 11 10 17 0 6 -7 5 -17 -4
-19 -17 -47 -13 -37 4 4 6 2 8 -4 4 -5 -3 -12 -1 -14 5 -2 7 -18 -2 -35 -20
-32 -32 -56 -43 -33 -16 7 9 11 18 8 20 -3 3 -14 -7 -24 -21 -10 -15 -29 -39
-41 -54 -31 -38 -46 -81 -33 -94 7 -7 10 -4 10 9 0 10 3 16 6 12 4 -3 4 -14 0
-23 -5 -13 -9 -14 -21 -4 -9 7 -19 10 -23 6 -4 -4 1 -12 11 -17 9 -6 17 -15
17 -21 0 -7 -4 -7 -14 1 -10 9 -17 7 -27 -6 -12 -15 -12 -16 2 -11 9 4 22 1
29 -5 10 -9 14 -9 17 1 8 22 34 12 44 -18 6 -16 15 -30 21 -30 6 0 7 -8 3 -17
-14 -35 -45 -168 -45 -195 0 -26 -9 -35 -22 -23 -7 7 17 123 38 184 10 31 12
47 5 49 -6 2 -9 8 -5 13 3 5 0 9 -5 9 -6 0 -11 -9 -11 -20 0 -12 -7 -20 -16
-20 -13 0 -14 -3 -5 -14 9 -11 9 -17 -2 -27 -8 -8 -12 -22 -9 -32 4 -14 0 -18
-13 -16 -27 6 -28 22 -5 47 19 20 19 22 3 18 -10 -1 -29 -8 -43 -14 -18 -8
-20 -11 -7 -11 9 -1 17 -6 17 -12 0 -6 -9 -9 -19 -6 -16 4 -19 0 -19 -24 1
-23 4 -27 15 -18 14 12 16 4 4 -25 -7 -17 -9 -17 -29 8 l-21 28 -66 -23 c-36
-12 -68 -26 -71 -31 -3 -5 -12 -1 -19 9 -11 15 -16 16 -41 3 -16 -7 -32 -13
-36 -12 -5 1 -8 -2 -8 -7 0 -5 -11 -12 -25 -15 -14 -4 -25 -11 -25 -16 0 -10
31 1 87 32 21 11 35 14 39 7 3 -6 4 -11 3 -12 -9 -5 -81 -39 -152 -72 -42 -20
-77 -42 -77 -49 0 -7 42 9 105 41 58 29 112 53 119 53 8 0 17 7 20 15 3 9 11
15 18 13 7 -1 23 3 35 10 12 7 26 11 30 11 4 -1 21 3 36 9 16 7 33 10 38 6 21
-13 6 -32 -37 -49 -39 -15 -48 -15 -55 -4 -6 10 -9 11 -9 2 0 -7 -8 -13 -17
-13 -9 0 -13 -3 -10 -7 4 -4 -5 -13 -20 -20 -16 -7 -41 -22 -58 -32 -36 -24
-59 -26 -52 -7 4 10 1 13 -9 9 -11 -4 -12 -9 -4 -18 9 -10 6 -16 -9 -24 -16
-9 -22 -8 -31 6 -9 16 -10 15 -5 -4 4 -15 2 -23 -6 -23 -20 0 -79 -44 -79 -58
0 -10 17 -4 55 17 34 19 56 27 61 20 8 -13 10 -11 -53 -44 -53 -27 -63 -50
-17 -39 28 7 34 -15 9 -36 -8 -7 -15 -19 -15 -28 0 -9 -10 -27 -22 -40 l-23
-25 25 13 c14 8 36 19 49 26 l25 13 -24 9 c-15 6 -19 11 -12 16 7 4 12 4 12
-1 0 -4 4 -3 8 2 4 6 70 42 147 80 123 62 140 73 137 93 -3 17 2 22 17 22 22
0 28 -14 11 -25 -5 -3 -10 -17 -10 -31 0 -16 -6 -24 -17 -24 -9 0 -45 -16 -80
-35 -40 -23 -63 -31 -63 -23 -1 9 -4 7 -10 -3 -5 -9 -23 -22 -40 -29 -16 -7
-30 -17 -30 -22 0 -6 -6 -8 -13 -5 -8 3 -20 2 -26 -3 -8 -5 -2 -7 15 -7 16 0
65 18 109 42 44 23 101 50 127 59 59 23 88 50 88 82 0 14 -4 22 -10 19 -6 -3
-10 -15 -10 -25 0 -10 -4 -21 -9 -25 -15 -9 -7 69 8 81 8 6 10 13 5 17 -5 3
-29 -8 -53 -24 -24 -17 -51 -28 -60 -26 -10 3 1 12 31 26 39 18 47 26 51 54 4
29 5 30 12 10 8 -26 24 -22 20 5 -1 9 0 11 2 5 3 -7 9 -13 14 -13 5 0 9 -5 9
-11 0 -5 -4 -7 -10 -4 -14 9 -12 -8 3 -30 11 -14 16 -15 22 -5 5 9 4 11 -3 6
-7 -4 -12 -1 -12 8 0 9 9 16 20 16 11 0 20 -6 20 -14 0 -11 8 -12 34 -6 19 4
38 5 42 1 4 -3 1 5 -6 18 -8 15 -8 21 -1 17 7 -5 11 1 11 14 0 16 4 20 16 16
9 -3 18 -6 20 -6 2 0 4 -6 4 -14 0 -7 9 -16 21 -19 17 -4 19 -10 14 -29 -4
-13 -11 -25 -15 -28 -4 -3 -1 -11 7 -19 12 -11 14 -11 12 0 -4 30 2 50 12 44
6 -4 8 -14 5 -24 -3 -9 6 -2 20 14 17 19 28 26 31 18 2 -7 9 -13 15 -13 7 0 7
4 0 13 -18 22 -3 57 24 57 13 0 24 4 24 9 0 5 -6 9 -12 8 -34 -1 -48 4 -48 18
0 8 7 15 15 15 8 0 15 -7 15 -16 0 -8 5 -12 10 -9 6 3 21 -2 35 -13 18 -14 21
-22 12 -31 -6 -6 -9 -11 -5 -11 8 0 102 50 113 61 5 5 17 9 27 9 10 0 18 5 18
10 0 16 -24 12 -73 -14 -49 -27 -83 -30 -91 -9 -6 16 -1 16 25 3 15 -9 29 -5
65 16 55 32 51 45 -6 15 -32 -16 -45 -19 -61 -11 -11 6 -24 8 -29 5 -6 -3 -10
-2 -10 3 0 6 -10 8 -22 5 -21 -5 -21 -4 -8 10 13 14 22 14 57 5 45 -11 73 -6
73 13 0 9 -4 9 -14 0 -15 -13 -62 -6 -85 13 -10 7 -16 6 -26 -7 -21 -29 -25
-19 -10 24 37 105 161 245 253 284 18 8 32 22 33 32 0 10 3 13 5 6 3 -7 12 -9
20 -6 7 3 12 9 9 13 -6 10 22 40 37 40 6 0 3 -9 -7 -20 -17 -18 -17 -20 -2
-14 9 3 17 11 17 17 0 6 3 8 6 4 4 -3 38 10 76 29 39 19 68 37 65 40 -6 6 -51
-14 -99 -43 -21 -13 -40 -19 -43 -13 -3 5 18 22 48 36 42 21 53 31 50 45 -6
22 17 47 36 41 9 -3 11 0 6 9 -5 8 -5 11 0 7 4 -4 14 0 22 10 12 16 13 15 6
-3 -10 -31 -23 -44 -39 -38 -9 3 -14 -2 -14 -17 0 -21 1 -22 25 -6 14 9 25 14
25 11 0 -3 18 4 40 15 22 11 40 16 40 11 0 -5 -6 -12 -12 -14 -7 -3 1 -4 19
-4 17 1 29 5 26 10 -2 4 1 7 6 7 6 0 11 6 11 14 0 8 5 18 12 22 8 5 9 2 5 -9
-7 -18 8 -24 18 -8 3 6 19 4 40 -5 20 -8 36 -10 40 -4 3 5 12 7 21 3 8 -3 12
-8 10 -11 -3 -3 0 -12 7 -20 11 -14 9 -14 -13 -2 -41 23 -51 21 -36 -3 8 -12
16 -34 20 -49 5 -22 3 -26 -9 -22 -8 4 -15 14 -15 24 0 29 -12 53 -20 41 -9
-16 -48 -22 -56 -9 -4 6 -3 8 3 5 6 -4 18 2 27 12 12 13 14 21 6 26 -15 9 -62
-23 -54 -37 4 -5 1 -14 -7 -18 -21 -14 -18 -37 7 -61 13 -12 24 -28 24 -35 0
-14 28 -39 36 -32 2 3 0 16 -5 30 -5 15 -6 30 0 39 6 10 9 5 10 -18 1 -18 2
-39 3 -45 1 -14 24 -32 41 -33 14 -1 34 28 28 39 -7 10 16 26 37 26 11 -1 10
-4 -4 -15 -11 -8 -16 -15 -10 -15 5 0 2 -5 -6 -10 -12 -7 -10 -9 7 -8 12 1 19
7 16 15 -3 7 0 13 6 13 16 0 14 27 -3 33 -7 3 -24 -1 -35 -10 -12 -8 -24 -13
-27 -10 -7 7 7 37 15 32 4 -2 7 6 7 18 -1 12 5 22 12 23 25 3 27 5 12 15 -13
9 -13 10 0 6 8 -2 14 -13 13 -23 -1 -18 -1 -18 11 -1 14 18 32 24 21 7 -3 -5
-1 -10 4 -10 6 0 11 -5 11 -11 0 -6 -7 -9 -14 -6 -10 4 -13 1 -9 -9 7 -18 17
-18 33 1 7 9 19 14 26 11 7 -3 15 0 17 7 2 7 8 8 13 4 5 -5 -1 -16 -13 -25
-28 -22 -25 -51 10 -85 33 -34 34 -39 5 -28 -13 5 -22 14 -21 20 2 6 -4 8 -12
5 -8 -4 -12 -10 -9 -15 8 -14 -20 -11 -35 4 -6 6 -28 12 -47 12 l-34 0 22 -17
c25 -19 111 -34 129 -23 6 4 14 2 18 -4 27 -44 65 102 55 214 l-4 50 102 50
c79 38 103 54 101 69 -1 12 9 22 28 29 30 12 36 21 19 32 -5 3 -10 15 -10 27
0 19 -4 20 -42 14 -24 -4 -44 -11 -46 -16 -5 -13 -52 -13 -52 0 0 6 14 13 30
17 17 3 30 9 30 13 0 4 15 11 34 14 22 4 36 13 39 26 3 11 4 20 4 19 -1 -1
-27 -11 -57 -23z m-460 -14 c0 -16 -177 -88 -188 -77 -9 8 1 14 94 49 49 19
90 34 92 35 1 1 2 -3 2 -7z m74 2 c9 -3 16 -11 16 -16 0 -6 -7 -8 -15 -4 -8 3
-15 1 -15 -4 0 -17 -14 -11 -28 10 -11 17 -10 20 7 20 11 0 26 -3 35 -6z m-55
-40 c-9 -11 -6 -13 20 -10 17 2 42 11 56 20 19 12 25 13 25 4 0 -8 -16 -22
-36 -33 -39 -21 -67 -28 -59 -15 5 8 -18 20 -38 20 -7 0 -4 -5 6 -11 14 -8 16
-14 6 -25 -18 -22 -49 -18 -49 8 0 21 1 21 13 3 10 -12 16 -14 21 -7 4 7 2 12
-3 12 -20 0 -11 20 12 30 13 5 16 9 7 10 -13 0 -13 2 0 9 20 13 34 2 19 -15z
m151 -30 c0 -8 -4 -13 -8 -10 -4 2 -14 0 -22 -5 -12 -7 -11 -10 8 -15 17 -5
22 -13 20 -30 -2 -13 0 -23 5 -24 25 -1 31 1 21 8 -6 4 -8 17 -5 30 l6 22 13
-21 c8 -12 9 -18 3 -14 -6 3 -11 1 -11 -5 0 -6 6 -13 14 -16 7 -3 21 -23 31
-45 10 -21 21 -39 26 -39 4 0 5 -9 2 -20 -5 -17 -11 -10 -35 36 -35 71 -32 68
-52 49 -15 -16 -14 -19 8 -46 38 -44 42 -70 17 -90 -15 -12 -17 -19 -9 -23 7
-3 1 -3 -14 0 -16 4 -28 2 -28 -4 0 -5 -11 -9 -24 -8 -14 0 -22 6 -19 14 4 8
-1 10 -13 5 -17 -6 -17 -5 -6 10 14 17 46 12 36 -5 -4 -6 1 -6 13 1 11 6 24 7
29 3 5 -4 2 1 -5 11 -13 16 -12 17 13 8 29 -12 32 -5 14 34 -7 15 -17 24 -25
21 -8 -4 -11 -1 -8 5 4 6 -1 17 -11 25 -11 9 -13 13 -6 9 6 -3 12 -4 12 -1 0
2 3 12 7 22 5 13 3 15 -7 9 -9 -5 -11 -4 -6 3 4 7 1 12 -9 12 -9 0 -19 9 -22
20 -3 11 -10 20 -15 20 -6 0 -8 -6 -5 -14 4 -10 -3 -13 -24 -12 -19 0 -28 5
-24 14 3 9 0 10 -15 2 -11 -6 -20 -16 -20 -22 0 -7 -5 -6 -15 2 -13 11 -14 10
-10 -2 3 -8 0 -15 -7 -15 -23 -1 -43 -8 -50 -18 -4 -5 -8 7 -8 28 0 40 14 48
36 20 10 -13 13 -14 9 -3 -4 12 6 19 40 28 25 7 57 12 71 12 14 0 37 9 51 20
31 24 33 24 33 4z m336 -7 c1 -9 -2 -14 -7 -11 -6 3 -15 2 -22 -3 -17 -13 -88
-36 -93 -30 -9 9 9 37 25 37 9 1 27 7 41 15 31 18 52 15 56 -8z m-396 5 c0 -5
-7 -9 -15 -9 -8 0 -12 4 -9 9 3 4 9 8 15 8 5 0 9 -4 9 -8z m-312 -20 c-2 -8 3
-17 10 -19 6 -3 12 0 12 7 0 6 5 8 10 5 6 -4 0 -15 -15 -27 -14 -11 -23 -23
-21 -27 3 -4 -4 -12 -14 -19 -14 -9 -21 -9 -26 0 -4 7 -3 8 4 4 8 -5 12 1 12
18 0 14 5 28 11 31 6 5 4 12 -8 20 -10 7 -21 11 -25 9 -5 -3 -8 -1 -8 5 0 5
14 9 30 9 21 -1 29 -6 28 -16z m132 -4 c0 -5 -4 -6 -10 -3 -5 3 -10 -1 -10 -9
0 -9 -4 -16 -10 -16 -5 0 -6 7 -3 17 4 11 3 14 -5 9 -12 -7 -17 6 -6 16 8 9
44 -3 44 -14z m-206 0 c-5 -8 0 -9 14 -6 12 4 25 1 29 -4 4 -7 1 -8 -7 -3 -10
6 -12 4 -7 -8 8 -22 -25 -41 -41 -25 -7 7 -12 17 -12 23 0 5 7 2 14 -8 12 -16
14 -16 20 -2 3 9 2 14 -3 11 -10 -7 -23 19 -14 28 10 10 15 7 7 -6z m-39 -16
c-3 -3 -11 0 -18 7 -9 10 -8 11 6 5 10 -3 15 -9 12 -12z m188 -6 c6 -16 -2
-28 -14 -20 -12 7 -11 34 0 34 5 0 11 -6 14 -14z m-30 -20 c4 -11 1 -13 -11
-9 -9 3 -14 2 -10 -2 5 -5 -6 -20 -22 -35 -36 -32 -80 -31 -80 3 0 20 0 20 23
-1 22 -20 24 -21 38 -4 8 9 14 20 14 24 0 5 33 36 41 38 1 0 4 -7 7 -14z m527
5 c0 -6 -4 -13 -10 -16 -5 -3 -10 1 -10 9 0 9 5 16 10 16 6 0 10 -4 10 -9z
m-450 -31 c0 -16 -4 -30 -9 -30 -10 0 -21 47 -13 55 13 13 22 3 22 -25z m420
20 c0 -5 -2 -10 -4 -10 -3 0 -8 5 -11 10 -3 6 -1 10 4 10 6 0 11 -4 11 -10z
m-680 -35 c12 -13 26 -22 30 -20 5 3 11 -2 14 -11 3 -9 11 -12 18 -8 8 5 7 0
-2 -11 -14 -16 -13 -17 7 -11 34 11 109 55 123 71 14 17 40 20 40 6 0 -5 -9
-13 -20 -16 -11 -3 -20 -12 -20 -18 -1 -18 -162 -90 -170 -76 -5 7 -10 8 -14
1 -8 -13 20 -36 34 -27 6 4 5 -4 -2 -20 -7 -15 -14 -22 -16 -16 -2 6 -8 11
-13 11 -6 0 -8 -4 -4 -9 3 -5 0 -13 -6 -17 -8 -5 -9 -3 -5 5 6 8 2 11 -10 9
-15 -2 -20 4 -22 27 l-3 30 18 -22 c12 -15 22 -20 32 -14 11 7 8 13 -13 26
-21 14 -29 15 -41 5 -12 -10 -12 -17 2 -52 13 -32 13 -42 3 -51 -10 -10 -12
-7 -7 10 4 20 3 21 -20 10 -19 -9 -26 -8 -34 4 -13 21 -11 27 9 31 9 2 23 -3
30 -12 11 -13 12 -11 6 10 -9 34 -9 34 -43 14 -27 -16 -29 -19 -15 -38 17 -25
18 -39 2 -34 -7 3 -19 -2 -26 -9 -12 -11 -12 -16 -1 -29 11 -14 10 -19 -9 -35
-13 -10 -30 -15 -39 -12 -12 5 -14 3 -8 -7 6 -9 4 -11 -4 -6 -9 6 -8 12 6 26
12 12 20 14 25 6 4 -6 8 -9 9 -6 0 3 2 13 4 23 2 9 -1 17 -7 17 -6 0 -7 7 -4
16 3 8 2 12 -4 9 -6 -3 -10 0 -10 8 0 8 7 18 16 21 22 9 26 8 18 -6 -4 -7 -3
-8 4 -4 7 4 12 14 12 22 0 20 -32 13 -71 -17 -39 -30 -80 -53 -93 -54 -5 0
-11 -6 -14 -14 -3 -9 0 -11 9 -5 12 6 12 5 1 -8 -10 -12 -9 -18 3 -28 17 -14
21 -35 5 -25 -5 3 -10 -1 -10 -9 0 -9 -5 -16 -10 -16 -16 0 -26 33 -12 38 7 2
12 8 12 13 0 5 -8 4 -18 -2 -19 -12 -22 -35 -7 -58 5 -9 4 -12 -3 -8 -16 10
-44 -4 -38 -19 3 -9 -1 -11 -12 -8 -15 5 -15 4 1 -9 15 -13 15 -16 2 -27 -8
-7 -12 -17 -8 -23 3 -5 1 -7 -5 -3 -15 9 -23 -7 -12 -24 8 -13 12 -12 24 5 8
11 12 23 10 27 -3 5 -1 8 5 8 5 0 13 9 16 21 5 16 10 18 21 9 11 -10 11 -14
-1 -27 -8 -8 -15 -19 -15 -24 0 -6 -4 -8 -9 -5 -4 3 -14 -13 -21 -34 -8 -23
-20 -40 -28 -40 -9 0 -13 -2 -10 -6 3 -3 -3 -37 -13 -76 -10 -40 -16 -75 -13
-80 3 -4 0 -8 -6 -8 -7 0 -9 -7 -6 -16 4 -9 1 -23 -5 -30 -20 -24 -31 -16 -24
17 4 17 9 39 10 48 2 9 4 16 5 16 1 0 3 12 5 26 2 15 15 53 30 85 21 45 24 63
16 80 -8 18 -6 26 10 40 23 21 24 30 4 38 -9 3 -19 -3 -26 -17 -10 -19 -10
-20 2 -12 8 6 5 1 -7 -10 -19 -17 -53 -82 -85 -164 -7 -18 -13 -21 -21 -13 -8
8 -7 16 3 28 12 15 12 16 -9 10 -29 -10 -28 -1 4 29 15 14 43 57 64 97 20 40
43 73 50 73 17 0 24 21 11 30 -6 3 -11 2 -11 -3 0 -5 -6 -9 -14 -9 -8 0 -12 6
-9 14 3 8 8 11 11 8 3 -3 16 2 30 11 23 15 24 15 17 -8 -6 -21 -5 -21 19 6 14
16 26 34 26 39 0 6 3 7 7 4 3 -4 13 -2 20 5 12 10 11 13 -7 23 -22 12 -21 12
15 34 20 11 41 19 46 15 5 -3 8 0 7 8 -2 7 4 14 12 14 8 1 19 2 24 3 5 0 3 7
-3 15 -8 10 -9 16 -1 21 5 3 10 2 10 -3 0 -6 7 -13 16 -16 10 -4 13 -2 8 6 -5
7 -2 8 7 3 11 -6 12 -5 2 6 -7 7 -13 17 -13 21 0 14 28 9 34 -7 7 -18 33 -10
33 11 0 9 -6 13 -14 10 -8 -3 -11 -2 -8 4 3 5 -3 13 -13 19 -14 7 -22 5 -32
-9 -8 -10 -18 -16 -22 -14 -5 3 -1 13 9 21 10 8 13 12 6 9 -14 -8 -27 10 -14
18 5 4 12 2 16 -3 3 -5 14 -8 25 -6 11 2 20 0 20 -5 0 -5 10 -14 22 -21 18
-10 20 -9 14 6 -6 15 -4 16 10 4 13 -11 15 -11 14 2 -5 30 1 36 32 35 19 -1
33 4 34 12 3 22 4 23 15 17 7 -5 5 -13 -6 -25 -15 -17 -15 -18 9 -16 30 1 30
1 15 28 -9 16 -8 23 2 29 11 7 9 9 -6 9 -11 0 -33 -9 -50 -20 -39 -26 -43 -25
-41 5 0 14 7 25 14 25 8 0 10 -5 6 -12 -4 -8 -3 -10 2 -5 5 5 9 14 9 20 1 7 6
11 13 10 7 -2 12 2 12 7 0 17 15 11 40 -15z m478 4 c-2 -7 -29 -12 -65 -13
-46 -2 -60 1 -56 11 7 17 127 19 121 2z m-140 -23 c1 -14 -2 -17 -7 -8 -8 13
-41 6 -41 -8 0 -5 -9 -12 -20 -15 -11 -4 -18 -10 -15 -15 6 -10 -25 -43 -33
-35 -3 3 3 12 14 20 29 22 0 18 -47 -6 -39 -19 -57 -20 -46 -2 3 5 41 24 84
43 43 19 79 37 81 40 6 15 28 5 30 -14z m212 4 c6 -11 8 -20 6 -20 -3 0 -10 9
-16 20 -6 11 -8 20 -6 20 3 0 10 -9 16 -20z m-326 -11 c-3 -5 -10 -7 -15 -3
-5 3 -7 10 -3 15 3 5 10 7 15 3 5 -3 7 -10 3 -15z m-424 -8 c3 -1 -2 -5 -10
-10 -15 -10 -30 -6 -30 9 0 4 8 7 18 5 9 -2 19 -4 22 -4z m662 2 c-13 -5 33
-48 52 -48 5 0 11 -7 13 -15 4 -12 2 -12 -5 -2 -7 10 -11 10 -22 -3 -14 -17
-40 -20 -40 -5 0 19 -46 34 -105 35 -33 0 -60 4 -60 10 0 6 15 10 33 10 17 0
32 2 32 5 0 4 19 7 42 9 23 1 44 4 47 7 2 2 9 4 15 3 6 0 5 -3 -2 -6z m-282
-17 c0 -2 -7 -7 -16 -10 -8 -3 -12 -2 -9 4 6 10 25 14 25 6z m264 -67 c-3 -5
-10 -7 -15 -3 -5 3 -7 10 -3 15 3 5 10 7 15 3 5 -3 7 -10 3 -15z m162 -16
c-10 -10 -19 5 -10 18 6 11 8 11 12 0 2 -7 1 -15 -2 -18z m-28 -45 c0 -74 1
-80 12 -73 15 9 12 -9 -6 -31 -11 -13 -17 -15 -20 -6 -3 6 -11 12 -18 12 -18
0 -13 41 8 55 12 9 15 20 10 39 -6 24 0 56 10 56 2 0 4 -24 4 -52z m-230 6 c0
-17 -3 -22 -8 -13 -5 6 -6 18 -3 26 8 19 11 16 11 -13z m62 17 c0 -6 -4 -12
-8 -15 -5 -3 -9 1 -9 9 0 8 4 15 9 15 4 0 8 -4 8 -9z m196 -18 c-10 -10 -19 5
-10 18 6 11 8 11 12 0 2 -7 1 -15 -2 -18z m-862 -14 c-3 -5 -14 -9 -25 -9 -10
0 -19 -4 -19 -10 0 -5 -7 -6 -17 -3 -10 4 -14 2 -9 -5 3 -6 2 -13 -4 -17 -5
-3 -10 -1 -10 5 0 6 -5 8 -10 5 -6 -4 -8 -10 -5 -15 3 -5 2 -11 -3 -14 -5 -3
-9 2 -9 10 0 20 74 67 89 58 8 -5 9 -1 4 11 -5 15 -4 16 9 5 8 -7 12 -16 9
-21z m566 -26 c0 -2 -9 2 -20 9 -11 7 -20 19 -20 27 0 9 7 6 20 -9 11 -13 20
-25 20 -27z m215 37 c-3 -5 -13 -10 -21 -10 -8 0 -12 5 -9 10 3 6 13 10 21 10
8 0 12 -4 9 -10z m-156 -39 c9 -6 10 -11 2 -15 -13 -8 -31 1 -31 15 0 11 11
11 29 0z m235 -6 c-4 -8 -10 -15 -15 -15 -4 0 -6 7 -3 15 4 8 10 15 15 15 4 0
6 -7 3 -15z m-798 -46 c-13 -11 -29 -19 -35 -19 -14 0 -14 -13 1 -28 9 -9 9
-15 0 -24 -9 -9 -12 -7 -12 10 0 12 -4 22 -10 22 -5 0 -10 -5 -10 -12 0 -8 -6
-6 -17 4 -13 13 -14 20 -5 31 7 8 9 16 6 19 -3 3 0 9 7 14 8 4 10 3 5 -4 -4
-7 -2 -12 4 -12 6 0 8 -6 4 -12 -4 -7 2 -5 14 6 12 10 21 21 20 25 -2 18 4 22
17 11 13 -11 15 -10 9 6 -6 19 -5 19 10 0 14 -17 13 -20 -8 -37z m-268 -17
c-4 -20 -27 -26 -48 -13 -22 15 -5 24 19 12 17 -10 20 -9 15 4 -3 8 -10 12
-15 9 -5 -3 -9 2 -9 11 0 13 4 14 21 5 11 -6 19 -19 17 -28z m232 34 c0 -3 -4
-8 -10 -11 -5 -3 -10 -1 -10 4 0 6 5 11 10 11 6 0 10 -2 10 -4z m610 -11 c9
-11 9 -15 1 -15 -7 0 -9 -5 -5 -11 4 -7 1 -10 -6 -7 -15 5 -25 48 -11 48 5 0
14 -7 21 -15z m-726 -13 c6 -10 -53 -46 -61 -38 -4 3 -1 6 6 6 7 0 10 4 6 9
-3 6 3 14 12 20 22 13 30 13 37 3z m-189 -30 c37 -5 45 -11 39 -27 -5 -12 -9
-13 -20 -4 -12 10 -13 9 -8 -5 4 -9 0 -18 -9 -22 -9 -3 -13 -12 -10 -20 3 -8
1 -14 -5 -14 -5 0 -12 -9 -15 -20 -3 -11 -10 -20 -16 -20 -16 0 -27 33 -13 38
7 2 12 10 12 18 0 8 5 14 11 14 5 0 8 4 4 9 -3 5 2 16 10 24 20 21 19 26 -5
20 -10 -3 -19 -8 -18 -12 3 -23 -3 -34 -13 -24 -8 8 -6 18 7 38 9 14 20 23 23
18 3 -4 15 -9 26 -11z m1135 -2 c0 -5 -5 -10 -11 -10 -5 0 -7 5 -4 10 3 6 8
10 11 10 2 0 4 -4 4 -10z m-861 -56 c-6 -7 -16 -11 -23 -7 -7 5 -5 9 7 11 9 2
14 8 11 14 -4 7 -2 8 5 4 9 -6 9 -11 0 -22z m-339 -2 c0 -13 -12 -22 -22 -16
-10 6 -1 24 13 24 5 0 9 -4 9 -8z m302 -20 c-7 -2 -12 -10 -12 -18 0 -8 -4
-14 -10 -14 -5 0 -10 7 -10 15 0 8 5 15 11 15 5 0 7 4 4 10 -4 6 1 7 11 3 11
-4 13 -8 6 -11z m-179 -42 c-3 -11 -10 -20 -15 -20 -5 0 -6 -4 -3 -10 3 -5 -1
-10 -9 -10 -15 0 -20 -11 -17 -37 1 -6 -3 -14 -9 -18 -5 -3 -10 -1 -10 5 0 6
-4 9 -9 5 -12 -7 -30 25 -24 43 3 7 1 12 -4 11 -21 -4 -43 2 -43 11 0 17 26
11 54 -11 15 -12 30 -18 33 -15 4 3 -2 13 -13 22 -18 14 -18 14 6 3 22 -11 26
-9 44 14 24 32 26 33 19 7z m50 -73 c3 -8 -3 -14 -15 -14 -16 -2 -17 1 -8 13
15 17 17 17 23 1z m-34 -58 c-20 -39 -40 -120 -34 -142 5 -18 4 -19 -5 -7 -10
12 -11 11 -7 -7 4 -16 0 -23 -10 -23 -11 0 -13 8 -8 33 11 59 57 177 66 171 5
-3 4 -14 -2 -25z m-86 -110 c2 -24 -2 -33 -12 -31 -7 1 -21 -3 -30 -10 -13
-10 -14 -10 -3 2 6 8 12 24 12 36 0 62 31 64 33 3z m-113 11 c8 -5 11 -12 8
-16 -10 -9 -38 3 -38 16 0 12 10 13 30 0z m-2 -58 c2 -14 -2 -22 -12 -22 -19
0 -29 17 -22 36 8 22 30 12 34 -14z m-108 -40 c0 -4 -15 -13 -32 -21 -83 -36
-104 -47 -111 -58 -4 -7 -17 -13 -27 -13 -11 0 -20 -6 -20 -12 0 -7 -14 -21
-31 -30 -16 -10 -27 -13 -24 -7 4 5 1 17 -6 25 -10 12 -9 13 6 8 14 -6 16 -4
10 6 -5 9 -4 11 4 6 6 -4 9 -12 6 -17 -4 -5 -1 -9 5 -9 8 0 10 9 6 23 -5 20
-2 23 22 22 19 0 26 5 24 16 -1 11 19 23 70 42 78 27 98 32 98 19z m-60 -96
c0 -8 -13 -17 -30 -21 -16 -4 -32 -11 -35 -16 -3 -5 -36 -23 -73 -41 -37 -18
-68 -36 -70 -40 -6 -14 -32 -9 -32 6 0 13 203 125 228 126 6 0 12 -6 12 -14z"/>
<path d="M1620 1310 c0 -5 5 -10 11 -10 5 0 7 5 4 10 -3 6 -8 10 -11 10 -2 0
-4 -4 -4 -10z"/>
<path d="M1430 1301 c0 -6 4 -13 10 -16 6 -3 7 1 4 9 -7 18 -14 21 -14 7z"/>
<path d="M1164 1204 c9 -35 12 -38 26 -29 8 5 7 11 -2 23 -10 12 -10 14 0 8 6
-4 12 -5 12 -2 0 3 -10 10 -21 17 -20 10 -21 9 -15 -17z"/>
<path d="M1057 1156 c3 -5 -5 -17 -18 -28 l-24 -19 25 12 c14 7 27 15 30 19 3
4 13 11 24 17 16 9 14 10 -12 9 -16 0 -28 -5 -25 -10z"/>
<path d="M1060 1080 c0 -5 5 -10 11 -10 5 0 7 5 4 10 -3 6 -8 10 -11 10 -2 0
-4 -4 -4 -10z"/>
<path d="M1560 1200 c-9 -6 -10 -10 -3 -10 6 0 15 5 18 10 8 12 4 12 -15 0z"/>
<path d="M1600 1186 c0 -2 8 -10 18 -17 15 -13 16 -12 3 4 -13 16 -21 21 -21
13z"/>
<path d="M1700 1015 c0 -18 19 -40 26 -32 4 4 0 15 -9 24 -9 10 -17 13 -17 8z"/>
<path d="M580 590 c0 -5 5 -10 11 -10 5 0 7 5 4 10 -3 6 -8 10 -11 10 -2 0 -4
-4 -4 -10z"/>
<path d="M2716 1455 c4 -9 3 -15 -2 -13 -16 4 -68 -19 -91 -41 -12 -12 -31
-21 -42 -21 -15 0 -19 -5 -14 -17 3 -10 2 -15 -2 -10 -5 4 -16 0 -26 -9 -16
-15 -20 -15 -34 -1 -21 21 -19 37 4 37 33 0 33 17 -1 24 -23 4 -34 2 -44 -11
-10 -15 -10 -19 2 -21 8 -2 14 -10 14 -18 0 -18 24 -44 39 -44 6 0 11 -9 11
-20 0 -13 -5 -17 -14 -14 -10 4 -13 0 -10 -13 4 -13 -6 -27 -30 -47 -20 -15
-33 -32 -30 -37 3 -5 -1 -9 -9 -9 -8 0 -20 -7 -27 -15 -7 -8 -16 -13 -20 -10
-13 8 -23 -16 -12 -27 11 -11 17 -7 75 48 17 17 44 39 60 48 15 10 27 27 27
37 0 13 7 19 23 19 15 0 18 3 9 8 -8 5 -10 16 -6 27 5 13 4 16 -4 11 -22 -13
-12 10 13 33 14 12 31 19 37 15 5 -4 14 0 19 7 7 11 9 10 9 -4 0 -14 3 -15 19
-5 11 7 19 15 18 18 -1 3 10 19 26 35 29 32 32 41 17 50 -6 3 -7 -1 -4 -10z"/>
<path d="M1365 1450 c-3 -5 -1 -10 4 -10 6 0 11 5 11 10 0 6 -2 10 -4 10 -3 0
-8 -4 -11 -10z"/>
<path d="M2305 1423 c-11 -62 -16 -73 -32 -73 -9 0 -14 -3 -10 -6 10 -10 58 6
52 17 -4 5 -1 16 5 24 6 8 9 19 5 25 -4 6 7 10 29 10 28 0 35 -4 39 -22 3 -13
4 -8 4 12 -1 31 -4 35 -26 36 -14 1 -34 4 -43 8 -14 6 -18 0 -23 -31z"/>
<path d="M2412 1417 c3 -24 21 -27 26 -4 2 8 -4 17 -13 21 -13 4 -16 1 -13
-17z"/>
<path d="M2553 1425 c-3 -9 -3 -19 1 -22 3 -4 6 1 6 10 0 8 8 18 18 20 16 4
16 5 -1 6 -10 0 -20 -6 -24 -14z"/>
<path d="M1280 1420 c-8 -5 -12 -11 -10 -14 3 -2 14 2 24 10 22 15 10 19 -14
4z"/>
<path d="M1667 1418 c2 -5 13 -8 24 -8 10 0 19 3 19 8 0 4 -11 7 -24 7 -13 0
-22 -3 -19 -7z"/>
<path d="M2247 1409 c-10 -11 -15 -25 -11 -31 4 -7 13 0 21 16 18 34 13 42
-10 15z"/>
<path d="M1240 1400 c0 -5 5 -10 10 -10 6 0 10 5 10 10 0 6 -4 10 -10 10 -5 0
-10 -4 -10 -10z"/>
<path d="M2049 1384 c-12 -33 -2 -46 16 -21 7 10 17 16 21 15 5 -2 10 0 12 5
12 37 -34 38 -49 1z"/>
<path d="M1747 1393 c-4 -3 -7 -11 -7 -17 0 -6 5 -5 12 2 6 6 9 14 7 17 -3 3
-9 2 -12 -2z"/>
<path d="M2735 1390 c-3 -5 -1 -10 4 -10 6 0 11 5 11 10 0 6 -2 10 -4 10 -3 0
-8 -4 -11 -10z"/>
<path d="M2413 1364 c-5 -13 -7 -13 -14 -2 -9 13 -9 12 -9 -19 0 -18 33 -6 41
15 5 13 5 22 -2 22 -5 0 -12 -7 -16 -16z"/>
<path d="M2712 1349 c-7 -10 -19 -19 -27 -19 -8 0 -15 -7 -15 -15 0 -24 25
-17 53 14 18 20 22 31 13 34 -7 3 -18 -4 -24 -14z"/>
<path d="M2080 1350 c-9 -6 -10 -10 -3 -10 6 0 15 5 18 10 8 12 4 12 -15 0z"/>
<path d="M1080 1340 c-9 -6 -10 -10 -3 -10 6 0 15 5 18 10 8 12 4 12 -15 0z"/>
<path d="M655 1319 c-16 -10 -25 -19 -19 -19 16 0 64 24 64 33 0 11 -12 7 -45
-14z"/>
<path d="M2350 1310 c0 -5 5 -10 11 -10 5 0 7 5 4 10 -3 6 -8 10 -11 10 -2 0
-4 -4 -4 -10z"/>
<path d="M2623 1306 c3 -8 3 -17 -1 -21 -4 -4 -7 -10 -7 -14 0 -15 -84 -102
-94 -97 -13 9 -38 -3 -45 -21 -9 -23 4 -37 17 -19 7 9 24 17 40 18 15 1 27 6
27 9 0 4 18 26 40 49 l40 42 -2 -31 c-1 -17 -7 -31 -13 -31 -5 0 -3 -4 5 -10
17 -10 31 6 23 27 -3 7 0 19 6 27 9 11 9 17 -1 27 -7 8 -13 20 -14 27 -2 27
-4 32 -15 32 -6 0 -9 -6 -6 -14z"/>
<path d="M688 1294 c-37 -19 -35 -26 2 -13 17 6 30 15 30 20 0 11 1 11 -32 -7z"/>
<path d="M2100 1296 c0 -8 -6 -17 -12 -19 -7 -3 -3 -6 9 -6 21 -1 22 -3 11
-27 -9 -19 -9 -33 -1 -55 7 -17 7 -31 2 -35 -17 -10 -10 -44 10 -44 20 0 45
-23 35 -33 -14 -13 7 -27 26 -17 18 10 18 12 -10 59 -15 27 -26 52 -22 56 4 3
0 11 -8 16 -13 10 -13 10 0 6 29 -9 60 11 60 39 0 17 6 28 20 31 11 3 20 12
20 21 0 13 -3 12 -20 -3 -11 -10 -28 -15 -40 -12 -24 6 -25 1 -5 -20 18 -17
11 -33 -15 -33 -22 0 -35 30 -18 42 10 6 8 8 -4 8 -11 0 -18 8 -18 20 0 11 -4
20 -10 20 -5 0 -10 -6 -10 -14z"/>
<path d="M2394 1296 c-3 -9 -16 -16 -28 -16 -18 0 -16 -3 12 -21 18 -12 36
-18 40 -15 3 4 0 11 -8 16 -11 7 -8 10 13 10 22 0 28 4 25 18 -4 22 -46 29
-54 8z"/>
<path d="M2020 1294 c-9 -3 -20 -14 -25 -26 -6 -12 -22 -25 -37 -29 -40 -10
-184 -92 -170 -97 6 -2 48 15 94 37 46 21 95 42 110 46 31 8 68 40 68 60 0 15
-10 17 -40 9z"/>
<path d="M2313 1284 c-7 -7 -13 -26 -13 -42 0 -32 26 -92 40 -92 21 0 18 21
-5 46 -14 15 -25 39 -25 53 0 20 2 23 10 11 12 -20 22 -7 13 17 -7 17 -10 19
-20 7z"/>
<path d="M2740 1287 c0 -10 -8 -17 -19 -17 -20 0 -35 -25 -25 -41 8 -14 24
-11 24 6 0 8 4 15 9 15 12 0 25 39 17 47 -3 4 -6 -1 -6 -10z"/>
<path d="M585 1270 c-3 -6 1 -7 9 -4 18 7 21 14 7 14 -6 0 -13 -4 -16 -10z"/>
<path d="M558 1223 c-2 -19 -13 -32 -33 -43 -16 -8 -32 -18 -33 -23 -2 -4 -8
-5 -13 -1 -5 3 -9 0 -9 -5 0 -16 6 -14 56 15 36 21 44 31 44 55 0 37 -8 38
-12 2z"/>
<path d="M595 1240 c-3 -5 1 -10 9 -10 9 0 16 5 16 10 0 6 -4 10 -9 10 -6 0
-13 -4 -16 -10z"/>
<path d="M2240 1221 c-6 -12 -15 -19 -19 -16 -17 10 -33 -24 -26 -52 5 -16 9
-34 11 -41 4 -22 12 -26 27 -14 8 7 17 9 20 5 12 -11 8 16 -5 36 -10 16 -8 23
9 38 18 16 19 21 8 42 l-13 23 -12 -21z m14 -30 c3 -5 -5 -11 -19 -13 -28 -6
-35 8 -7 15 9 3 18 5 19 6 1 0 4 -3 7 -8z"/>
<path d="M2350 1232 c0 -5 9 -17 20 -27 18 -16 20 -16 20 -2 0 9 -9 21 -20 27
-11 6 -20 7 -20 2z"/>
<path d="M585 1210 c-3 -5 -1 -10 4 -10 6 0 11 5 11 10 0 6 -2 10 -4 10 -3 0
-8 -4 -11 -10z"/>
<path d="M796 1203 c-6 -14 -5 -15 5 -6 7 7 10 15 7 18 -3 3 -9 -2 -12 -12z"/>
<path d="M2056 1205 c-3 -8 -1 -15 4 -15 13 0 22 18 11 24 -5 3 -11 -1 -15 -9z"/>
<path d="M1016 1193 c-6 -14 -5 -15 5 -6 7 7 10 15 7 18 -3 3 -9 -2 -12 -12z"/>
<path d="M216 1178 c3 -4 -2 -8 -10 -8 -9 0 -16 -5 -16 -11 0 -6 -7 -8 -16 -5
-8 3 -12 2 -9 -4 3 -5 -18 -21 -47 -36 -64 -32 -62 -30 -53 -43 4 -7 14 -3 28
9 12 12 32 23 44 26 13 4 23 10 23 14 0 4 14 13 30 20 17 7 30 16 30 20 0 5
12 13 28 18 l27 10 -32 -1 c-18 0 -30 -4 -27 -9z"/>
<path d="M726 1165 c4 -8 10 -12 15 -9 11 6 2 24 -11 24 -5 0 -7 -7 -4 -15z"/>
<path d="M2667 1173 c-15 -14 -6 -31 13 -26 11 3 20 12 20 19 0 14 -22 19 -33
7z"/>
<path d="M2280 1151 c0 -14 5 -18 20 -14 24 6 26 19 4 27 -23 9 -24 8 -24 -13z"/>
<path d="M2587 1156 c-12 -9 -14 -16 -8 -21 6 -3 18 0 26 9 27 27 14 36 -18
12z"/>
<path d="M530 1141 c0 -5 7 -11 14 -14 10 -4 13 -1 9 9 -6 15 -23 19 -23 5z"/>
<path d="M2621 1130 c-19 -17 -21 -21 -7 -26 21 -8 22 -64 1 -64 -8 0 -15 9
-15 19 0 26 -15 34 -30 16 -6 -8 -33 -24 -58 -37 -41 -19 -93 -50 -128 -75
-24 -18 -55 -33 -67 -33 -14 0 -47 -31 -47 -43 0 -4 7 -7 15 -7 8 0 15 3 15 8
0 8 91 52 109 52 6 0 11 -7 11 -15 0 -8 5 -15 10 -15 6 0 10 6 10 13 0 6 20
23 45 36 25 13 45 28 45 32 0 12 -7 11 -31 -1 -13 -7 -19 -7 -19 0 0 5 6 10
14 10 8 0 16 7 20 15 3 8 12 15 20 15 9 0 13 -6 10 -14 -3 -9 3 -17 17 -21 14
-5 25 -3 27 4 2 6 8 11 14 11 17 0 37 27 52 70 12 36 12 41 -1 36 -11 -4 -13
-1 -8 14 8 24 6 24 -24 0z m-31 -106 c0 -2 -7 -4 -15 -4 -8 0 -15 4 -15 10 0
5 7 7 15 4 8 -4 15 -8 15 -10z"/>
<path d="M208 1122 c-16 -9 -28 -20 -28 -24 0 -5 -6 -8 -12 -8 -7 0 -33 -14
-58 -30 -55 -37 -60 -37 -60 -3 0 20 -3 24 -11 16 -8 -8 -8 -17 0 -32 14 -25
26 -26 66 -5 17 9 47 25 68 36 20 10 42 27 49 37 6 11 18 17 25 14 7 -3 13 0
13 6 0 16 -21 13 -52 -7z"/>
<path d="M437 1126 c-4 -10 -1 -13 9 -9 15 6 19 23 5 23 -5 0 -11 -7 -14 -14z"/>
<path d="M630 1121 c0 -6 4 -13 10 -16 6 -3 7 1 4 9 -7 18 -14 21 -14 7z"/>
<path d="M1293 1116 c-13 -6 -23 -14 -23 -17 0 -11 38 2 51 17 13 16 4 16 -28
0z"/>
<path d="M2526 1121 c-3 -5 -22 -12 -43 -16 -47 -9 -109 -40 -121 -61 -8 -15
-13 -15 -41 -3 -17 8 -31 17 -31 21 0 5 -4 8 -9 8 -5 0 -7 -9 -4 -19 3 -13 -2
-21 -16 -26 -12 -3 -21 -11 -21 -16 0 -15 28 -10 38 7 7 12 17 15 41 9 17 -4
29 -11 25 -16 -3 -5 -10 -7 -15 -4 -5 4 -9 -3 -9 -15 l0 -21 30 21 c17 12 30
25 30 29 0 4 23 15 51 25 36 13 47 21 37 27 -12 8 -4 13 14 10 15 -2 69 37 60
43 -6 4 -13 2 -16 -3z"/>
<path d="M292 1084 c-30 -20 -51 -38 -48 -41 2 -3 17 4 33 15 15 11 46 29 68
41 27 14 33 21 20 21 -11 0 -44 -16 -73 -36z"/>
<path d="M1324 1095 c-14 -13 -30 -22 -34 -20 -9 5 -23 -25 -16 -32 6 -7 46
16 46 26 0 5 8 11 18 13 10 3 19 13 19 22 0 21 -1 21 -33 -9z"/>
<path d="M1370 1110 c0 -5 5 -10 11 -10 5 0 7 5 4 10 -3 6 -8 10 -11 10 -2 0
-4 -4 -4 -10z"/>
<path d="M1806 1107 c3 -10 9 -15 12 -12 3 3 0 11 -7 18 -10 9 -11 8 -5 -6z"/>
<path d="M1948 1113 c7 -3 16 -2 19 1 4 3 -2 6 -13 5 -11 0 -14 -3 -6 -6z"/>
<path d="M385 1090 c-10 -11 -24 -20 -32 -20 -7 0 -13 -4 -13 -9 0 -4 -21 -15
-47 -24 -36 -12 -41 -16 -22 -16 14 -1 30 4 37 11 7 7 12 8 12 4 0 -4 19 6 41
23 33 24 46 28 61 20 17 -9 18 -8 6 10 -16 26 -20 26 -43 1z"/>
<path d="M470 1093 c0 -11 3 -14 8 -7 4 6 14 14 22 17 10 4 8 6 -7 6 -16 1
-23 -5 -23 -16z"/>
<path d="M2316 1095 c-22 -17 -15 -31 9 -21 9 3 13 10 10 16 -3 5 0 7 8 4 8
-3 18 -1 22 5 9 16 -27 13 -49 -4z"/>
<path d="M740 1065 c-15 -8 -19 -14 -10 -14 18 -1 46 16 40 23 -3 2 -16 -2
-30 -9z"/>
<path d="M1230 1050 c-9 -6 -10 -10 -3 -10 6 0 15 5 18 10 8 12 4 12 -15 0z"/>
<path d="M1324 1045 c-4 -11 5 -28 26 -51 19 -18 31 -36 28 -40 -10 -9 -44 17
-62 48 -10 15 -22 28 -27 28 -11 0 -7 -9 22 -51 10 -14 15 -29 12 -33 -4 -4 1
-4 11 0 15 6 17 4 11 -6 -5 -9 -4 -11 3 -6 14 9 15 -13 2 -34 -8 -13 -10 -13
-10 2 0 9 -5 20 -12 24 -7 4 -8 3 -4 -4 4 -7 2 -12 -5 -12 -8 0 -8 -4 1 -15 7
-9 10 -19 6 -22 -4 -4 -10 -3 -14 2 -4 6 -14 16 -23 23 -13 10 -19 9 -30 -5
-12 -15 -12 -16 2 -11 13 5 16 2 12 -13 -4 -14 -1 -18 10 -14 26 11 29 -25 2
-37 -13 -6 -22 -15 -19 -19 4 -8 40 7 54 21 3 3 21 16 40 28 32 19 29 27 -7
23 -7 -1 -1 17 15 42 19 31 32 43 44 39 10 -2 18 0 18 4 0 15 -40 35 -52 28
-8 -5 -9 -2 -5 9 4 11 1 17 -8 17 -7 0 -17 5 -21 12 -5 7 -3 8 5 3 9 -5 12 -2
9 10 -4 24 -26 31 -34 10z m16 -189 c0 -3 -4 -8 -10 -11 -5 -3 -10 -1 -10 4 0
6 5 11 10 11 6 0 10 -2 10 -4z"/>
<path d="M1565 1050 c3 -5 8 -10 11 -10 2 0 4 5 4 10 0 6 -5 10 -11 10 -5 0
-7 -4 -4 -10z"/>
<path d="M686 1041 c-3 -5 3 -11 13 -14 14 -3 18 -1 14 9 -6 16 -19 18 -27 5z"/>
<path d="M1246 1031 c-4 -6 -12 -9 -17 -6 -5 4 -9 1 -9 -4 0 -6 8 -11 18 -12
11 0 7 -4 -10 -11 -16 -5 -28 -14 -28 -20 0 -6 6 -8 13 -5 41 15 57 17 57 8 0
-6 -4 -11 -10 -11 -5 0 -10 -5 -10 -11 0 -5 6 -7 13 -3 6 4 9 3 4 -1 -7 -8 20
-45 33 -45 4 0 7 14 8 30 0 19 -4 30 -13 30 -7 0 -19 16 -27 36 -9 23 -18 33
-22 25z m49 -81 c3 -5 1 -10 -4 -10 -6 0 -11 5 -11 10 0 6 2 10 4 10 3 0 8 -4
11 -10z"/>
<path d="M2080 1028 c0 -4 14 -8 32 -8 17 0 28 3 25 7 -10 9 -57 10 -57 1z"/>
<path d="M1180 1010 c-8 -5 -10 -10 -5 -10 6 0 17 5 25 10 8 5 11 10 5 10 -5
0 -17 -5 -25 -10z"/>
<path d="M1630 995 c-7 -8 -8 -15 -2 -15 5 0 15 7 22 15 7 8 8 15 2 15 -5 0
-15 -7 -22 -15z"/>
<path d="M2168 1003 c7 -3 16 -2 19 1 4 3 -2 6 -13 5 -11 0 -14 -3 -6 -6z"/>
<path d="M490 981 c-15 -28 10 -70 29 -48 13 16 5 28 -15 20 -17 -6 -18 9 -2
25 6 6 9 14 6 18 -4 3 -11 -4 -18 -15z"/>
<path d="M2720 990 c0 -5 5 -10 10 -10 6 0 10 5 10 10 0 6 -4 10 -10 10 -5 0
-10 -4 -10 -10z"/>
<path d="M2176 965 c-26 -14 -44 -20 -40 -13 5 8 0 9 -17 4 -13 -4 -29 -8 -36
-10 -7 -1 -16 -5 -19 -9 -4 -4 -20 -7 -36 -7 -18 0 -28 -5 -28 -15 0 -19 12
-19 74 0 28 8 58 13 68 9 10 -3 18 -1 18 5 0 6 9 11 21 11 11 0 18 4 14 9 -6
10 33 26 42 17 11 -10 -7 -36 -25 -36 -13 0 -18 -7 -17 -27 0 -22 -5 -29 -25
-32 -14 -1 -27 -6 -30 -10 -6 -8 -107 -56 -137 -65 -14 -5 -23 -3 -23 3 0 7
-8 7 -26 0 -15 -5 -28 -8 -28 -7 -1 2 -8 14 -14 28 l-12 25 5 -27 c6 -32 -10
-38 -18 -7 -7 28 1 49 18 43 7 -3 15 -1 19 4 3 5 -5 8 -16 7 -12 -1 -24 -7
-26 -13 -5 -15 -42 -16 -42 -2 0 6 -5 10 -12 10 -6 0 -4 -7 5 -18 20 -22 22
-58 5 -65 -10 -4 -9 -8 2 -17 13 -10 13 -11 -2 -6 -10 3 -18 2 -18 -2 0 -4 -9
-8 -21 -9 -17 -2 -18 1 -9 13 8 9 9 14 2 14 -6 0 -12 -5 -14 -11 -2 -7 -10 -4
-18 7 -13 16 -13 17 2 11 10 -3 20 -2 24 4 3 6 12 3 21 -8 8 -10 12 -12 8 -5
-3 6 -2 12 4 12 6 0 8 7 5 15 -6 15 -29 16 -53 1 -8 -5 -12 -5 -9 0 4 5 -8 10
-25 11 -39 3 -52 16 -32 33 8 7 15 19 15 27 0 8 4 12 9 9 5 -3 12 1 15 10 4 9
9 14 12 12 3 -3 26 0 51 8 25 8 48 12 52 10 4 -3 13 -1 21 5 12 7 12 9 -3 9
-30 0 -110 -20 -138 -35 -14 -8 -29 -12 -32 -8 -4 3 -23 7 -44 9 -21 2 -56 6
-78 10 -34 6 -37 8 -20 16 15 6 12 7 -13 3 -18 -2 -31 -1 -27 4 3 5 -3 8 -12
6 -10 -2 -22 -4 -27 -4 -5 -1 -4 -7 2 -14 7 -8 6 -19 -3 -37 -8 -14 -14 -33
-15 -42 0 -10 -5 -18 -11 -18 -6 0 -9 9 -6 20 3 10 0 26 -7 35 -11 15 -13 15
-29 -3 -17 -19 -17 -20 4 -25 29 -8 19 -31 -17 -38 -16 -4 -23 -7 -15 -8 11
-1 10 -5 -5 -16 -32 -25 -2 -16 55 15 61 34 61 34 61 20 0 -6 -16 -18 -35 -27
-19 -9 -35 -20 -35 -24 0 -3 17 -9 38 -13 20 -3 54 -11 75 -17 34 -9 38 -14
33 -33 -5 -21 -3 -23 25 -20 17 2 28 0 24 -6 -3 -5 6 -12 20 -16 14 -3 25 -10
25 -15 0 -11 -54 1 -58 13 -2 4 -9 5 -14 2 -7 -4 -8 -2 -4 4 4 7 3 12 -2 12
-5 0 -12 -9 -15 -20 -3 -12 0 -20 7 -20 7 0 13 -7 13 -15 0 -8 -4 -15 -9 -15
-4 0 -8 4 -8 9 0 5 -9 11 -21 14 -12 3 -19 3 -16 1 3 -3 -11 -20 -30 -38 -31
-28 -33 -33 -19 -45 11 -10 16 -10 16 -2 0 7 5 9 10 6 6 -3 10 -1 10 5 0 17
39 55 47 46 5 -4 -9 -23 -30 -43 -21 -19 -36 -38 -32 -41 9 -9 97 87 90 98 -3
5 47 8 111 6 129 -3 248 15 353 54 81 30 65 38 -20 11 -71 -24 -79 -25 -79
-11 0 6 8 10 18 10 9 0 42 9 72 21 30 11 69 21 85 20 17 0 41 9 55 19 21 17
23 21 10 29 -9 6 -19 6 -26 0 -7 -5 -20 -12 -30 -14 -11 -3 -59 -18 -107 -35
-49 -16 -91 -29 -95 -29 -4 1 -11 0 -17 -1 -29 -7 -41 -3 -46 15 -6 23 5 36
50 59 48 25 50 12 2 -15 -23 -12 -41 -30 -41 -38 1 -14 1 -14 10 0 5 8 27 21
50 29 22 7 40 17 40 23 0 5 15 6 35 3 22 -4 35 -3 35 4 0 5 11 10 24 10 13 0
26 7 30 15 3 8 12 12 21 9 9 -4 15 -1 15 8 0 7 13 21 29 31 16 10 31 27 33 39
2 12 17 28 34 37 34 17 62 61 39 61 -16 0 -37 -25 -28 -33 3 -4 1 -7 -5 -7 -6
0 -14 9 -17 20 -8 25 -12 25 -69 -5z m-636 -64 c0 -5 -6 -14 -14 -20 -16 -13
-32 2 -21 19 8 12 35 13 35 1z m35 -11 c4 -6 11 -7 17 -4 6 4 8 2 4 -4 -11
-18 10 -22 30 -7 25 19 34 19 34 -2 0 -10 4 -14 8 -8 12 17 42 17 42 0 0 -9
-6 -15 -12 -14 -7 2 -30 -5 -52 -14 -47 -21 -52 -21 -37 -3 10 12 8 13 -8 9
-12 -3 -21 -10 -21 -15 0 -5 -4 -6 -10 -3 -15 9 -12 25 5 25 18 0 19 12 4 27
-15 15 -43 -11 -35 -33 3 -8 2 -12 -4 -9 -6 3 -10 1 -10 -4 0 -6 3 -11 8 -12
105 -9 123 -9 118 -1 -3 6 2 8 14 5 11 -3 20 -9 20 -14 0 -5 11 -9 25 -9 14 0
25 -5 25 -11 0 -11 -108 -7 -186 7 -28 5 -67 44 -44 44 5 0 16 14 25 30 16 31
29 37 40 20z m-71 -29 c3 -5 -1 -11 -9 -14 -9 -4 -12 -1 -8 9 6 16 10 17 17 5z
m376 -68 c0 -7 -4 -13 -10 -13 -5 0 -10 12 -10 28 0 21 2 24 10 12 5 -8 10
-21 10 -27z m-335 -5 c18 2 19 2 2 -8 -9 -6 -22 -8 -27 -5 -6 3 -10 2 -10 -3
0 -5 -11 -7 -25 -4 -14 2 -22 8 -20 13 3 4 12 6 20 2 8 -3 15 0 15 7 0 6 5 8
13 3 6 -4 21 -6 32 -5z m68 -31 c-4 -6 -1 -7 8 -1 21 13 38 14 46 2 3 -6 1 -8
-4 -5 -12 8 -21 -19 -15 -45 5 -25 20 -22 24 5 2 12 10 22 18 22 8 0 16 -10
18 -22 4 -28 22 -29 45 -3 9 11 13 20 7 20 -5 0 -12 -5 -15 -10 -4 -6 -11 -7
-17 -4 -6 4 -6 10 1 17 6 6 11 16 11 22 0 5 -5 3 -10 -5 -6 -9 -12 -11 -17 -5
-5 6 -6 9 -4 8 2 -2 10 2 17 8 9 8 18 5 34 -11 20 -20 20 -21 3 -45 -20 -27
-50 -39 -56 -21 -3 8 -12 8 -35 -1 -31 -11 -37 -7 -33 20 0 4 -3 7 -9 7 -5 0
-7 8 -3 18 3 9 3 14 -1 10 -4 -3 -9 -14 -10 -25 -4 -24 -21 -19 -22 7 -1 11 3
17 9 13 6 -3 7 -1 3 6 -4 6 -13 11 -19 10 -22 -3 -37 1 -37 9 0 4 16 7 35 8
20 0 31 -4 28 -9z m262 3 c3 -5 1 -10 -4 -10 -6 0 -11 5 -11 10 0 6 2 10 4 10
3 0 8 -4 11 -10z m-5 -29 c0 -5 3 -16 6 -25 3 -9 2 -16 -4 -16 -5 0 -12 11
-14 25 -3 14 -1 25 3 25 5 0 9 -4 9 -9z m-50 -21 c0 -13 -11 -25 -32 -34 l-33
-14 48 -1 c76 -1 54 -19 -28 -23 -81 -3 -95 -1 -95 13 0 5 16 9 35 9 22 0 37
6 44 18 5 9 13 15 18 12 4 -3 9 5 11 18 4 27 32 30 32 2z m30 -12 c0 -5 -4 -8
-10 -8 -5 0 -10 10 -10 23 0 18 2 19 10 7 5 -8 10 -18 10 -22z m41 -32 c13 8
65 16 58 9 -4 -3 -15 -7 -25 -9 -11 -3 -27 -7 -36 -11 -13 -5 -18 -2 -17 11 0
11 3 14 6 6 2 -6 9 -10 14 -6z"/>
<path d="M2675 980 c-3 -5 -2 -10 4 -10 5 0 13 5 16 10 3 6 2 10 -4 10 -5 0
-13 -4 -16 -10z"/>
<path d="M1131 971 c-8 -5 -9 -11 -3 -15 5 -3 12 1 16 9 6 17 6 18 -13 6z"/>
<path d="M1821 964 c0 -11 3 -14 6 -6 3 7 2 16 -1 19 -3 4 -6 -2 -5 -13z"/>
<path d="M1158 953 c7 -3 16 -2 19 1 4 3 -2 6 -13 5 -11 0 -14 -3 -6 -6z"/>
<path d="M1220 930 c22 -31 35 -37 44 -21 6 10 -20 35 -47 44 -16 6 -16 4 3
-23z"/>
<path d="M1453 953 c-18 -7 -16 -33 3 -33 8 0 12 5 9 10 -3 6 -1 10 4 10 6 0
11 5 11 10 0 11 -7 12 -27 3z"/>
<path d="M1790 950 c0 -5 5 -10 11 -10 5 0 7 5 4 10 -3 6 -8 10 -11 10 -2 0
-4 -4 -4 -10z"/>
<path d="M1950 946 c0 -2 7 -7 16 -10 8 -3 12 -2 9 4 -6 10 -25 14 -25 6z"/>
<path d="M2635 939 c-11 -16 -1 -19 13 -3 7 8 8 14 3 14 -5 0 -13 -5 -16 -11z"/>
<path d="M2742 930 c0 -14 2 -19 5 -12 2 6 2 18 0 25 -3 6 -5 1 -5 -13z"/>
<path d="M1900 930 c0 -5 5 -10 10 -10 6 0 10 5 10 10 0 6 -4 10 -10 10 -5 0
-10 -4 -10 -10z"/>
<path d="M481 909 c0 -15 -8 -32 -16 -39 -8 -7 -15 -22 -14 -34 0 -14 2 -16 6
-6 3 8 12 22 20 32 8 9 13 28 10 45 -4 28 -4 28 -6 2z"/>
<path d="M2590 920 c0 -5 7 -7 15 -4 8 4 15 8 15 10 0 2 -7 4 -15 4 -8 0 -15
-4 -15 -10z"/>
<path d="M2700 921 c0 -5 -9 -13 -20 -16 -11 -3 -20 -11 -20 -16 0 -16 25 -10
43 11 20 23 21 30 7 30 -5 0 -10 -4 -10 -9z"/>
<path d="M1204 901 c0 -11 3 -18 7 -15 4 2 10 -2 12 -8 3 -7 6 -8 6 -2 1 5 -5
18 -12 28 -12 16 -13 16 -13 -3z"/>
<path d="M1893 907 c-57 -8 -73 -13 -72 -26 0 -12 2 -13 6 -2 4 10 9 8 20 -10
11 -20 13 -21 11 -4 -3 17 6 21 62 30 87 14 64 23 -27 12z"/>
<path d="M1452 903 c11 -3 15 -10 11 -20 -4 -11 -2 -14 5 -9 21 13 13 36 -10
35 -17 -1 -18 -3 -6 -6z"/>
<path d="M2128 903 c7 -3 16 -2 19 1 4 3 -2 6 -13 5 -11 0 -14 -3 -6 -6z"/>
<path d="M1006 885 c4 -8 8 -15 10 -15 2 0 4 7 4 15 0 8 -4 15 -10 15 -5 0 -7
-7 -4 -15z"/>
<path d="M2075 889 c-4 -6 -4 -13 -1 -16 3 -4 6 -1 6 5 0 6 8 13 18 15 15 4
15 5 0 6 -9 0 -20 -4 -23 -10z"/>
<path d="M1789 878 c-1 -7 -1 -16 -1 -19 1 -4 -8 -9 -19 -12 -15 -4 -19 -2
-15 8 8 21 -17 8 -33 -18 -13 -20 -13 -21 2 -9 11 10 21 11 35 3 13 -7 22 -7
30 1 8 8 16 7 28 -3 16 -13 16 -12 3 9 -8 12 -17 22 -21 22 -4 0 -5 7 -2 15 4
8 3 15 0 15 -3 0 -7 -6 -7 -12z"/>
<path d="M2543 863 c-21 -21 -21 -23 -3 -23 10 0 22 9 25 21 9 28 4 29 -22 2z"/>
<path d="M2641 877 c-1 -11 -11 -28 -23 -38 l-23 -20 23 11 c26 12 37 33 29
52 -3 8 -6 6 -6 -5z"/>
<path d="M2720 880 c0 -5 5 -10 11 -10 5 0 7 5 4 10 -3 6 -8 10 -11 10 -2 0
-4 -4 -4 -10z"/>
<path d="M41 862 c-19 -9 -37 -23 -39 -30 -2 -8 14 -2 37 13 36 24 48 35 39
35 -2 0 -18 -8 -37 -18z"/>
<path d="M1958 873 c-14 -3 -15 -7 -5 -17 8 -10 19 -11 36 -4 17 6 27 5 32 -3
6 -10 11 -9 25 2 16 13 15 14 -12 19 -16 3 -32 1 -36 -5 -5 -6 -8 -6 -8 3 0
12 -3 13 -32 5z"/>
<path d="M2248 873 c6 -3 12 -7 12 -10 0 -11 -35 -32 -52 -33 -10 0 -18 -6
-18 -14 0 -21 21 -31 31 -15 7 12 9 11 10 -1 1 -8 1 -18 0 -22 -2 -12 14 -9
45 7 l29 15 -29 0 c-22 0 -27 4 -22 16 3 9 6 18 6 20 0 2 13 4 29 4 16 0 31 6
34 13 4 10 7 10 18 0 7 -7 18 -13 24 -13 5 0 2 5 -9 11 -15 9 -16 13 -5 21 10
7 8 8 -6 2 -24 -8 -41 -9 -80 -2 -16 3 -24 3 -17 1z"/>
<path d="M2418 873 c7 -3 16 -2 19 1 4 3 -2 6 -13 5 -11 0 -14 -3 -6 -6z"/>
<path d="M1240 860 c-13 -8 -12 -11 5 -24 24 -18 32 -19 40 -6 3 6 -1 10 -9
10 -8 0 -16 7 -18 15 -2 10 -7 12 -18 5z"/>
<path d="M1932 830 c0 -14 2 -19 5 -12 2 6 2 18 0 25 -3 6 -5 1 -5 -13z"/>
<path d="M42 814 c-48 -29 -51 -44 -5 -20 25 13 63 46 52 46 -2 0 -23 -12 -47
-26z"/>
<path d="M897 833 c-4 -3 -7 -11 -7 -17 0 -6 5 -5 12 2 6 6 9 14 7 17 -3 3 -9
2 -12 -2z"/>
<path d="M1330 805 c-30 -19 -51 -35 -48 -35 4 0 15 -3 25 -6 15 -5 16 -4 3 6
-13 10 -11 11 8 7 12 -3 20 -1 16 4 -3 5 -1 9 5 9 5 0 12 -6 15 -12 3 -7 3 -3
0 10 -3 12 -1 22 3 22 5 0 18 7 29 15 37 28 -2 14 -56 -20z"/>
<path d="M2317 826 c-12 -9 -14 -16 -8 -21 6 -3 11 -1 11 5 0 6 5 8 10 5 6 -3
10 1 10 9 0 19 0 19 -23 2z"/>
<path d="M940 805 c7 -9 15 -13 17 -11 7 7 -7 26 -19 26 -6 0 -6 -6 2 -15z"/>
<path d="M2551 803 c-7 -8 -11 -16 -8 -19 2 -2 10 2 17 11 17 20 9 27 -9 8z"/>
<path d="M430 795 c-8 -9 -8 -15 -2 -15 12 0 26 19 19 26 -2 2 -10 -2 -17 -11z"/>
<path d="M866 797 c3 -10 9 -15 12 -12 3 3 0 11 -7 18 -10 9 -11 8 -5 -6z"/>
<path d="M2482 785 c0 -16 2 -22 5 -12 2 9 2 23 0 30 -3 6 -5 -1 -5 -18z"/>
<path d="M36 773 c-20 -13 -36 -28 -36 -33 0 -9 48 15 60 31 3 3 19 11 35 17
29 10 29 10 4 9 -14 -1 -42 -12 -63 -24z"/>
<path d="M131 778 c-1 -10 -7 -18 -15 -18 -7 0 -29 -11 -49 -24 -19 -13 -43
-26 -54 -29 -13 -3 -11 -5 8 -6 14 0 35 8 47 19 12 11 28 20 35 20 19 0 40 26
34 42 -4 8 -6 7 -6 -4z"/>
<path d="M403 767 c4 -10 7 -28 8 -40 0 -22 0 -22 10 1 7 18 5 28 -8 40 -16
16 -16 16 -10 -1z"/>
<path d="M463 744 c-13 -14 -23 -32 -23 -40 0 -12 3 -12 23 1 13 8 27 12 32 8
4 -5 5 -3 2 4 -4 6 -1 18 8 26 13 13 13 16 -1 21 -20 8 -15 10 -41 -20z"/>
<path d="M815 750 c-3 -5 -1 -10 4 -10 6 0 11 5 11 10 0 6 -2 10 -4 10 -3 0
-8 -4 -11 -10z"/>
<path d="M1387 754 c-15 -15 -6 -25 16 -18 20 6 20 5 -5 -15 -15 -12 -30 -21
-35 -19 -16 3 -62 -25 -56 -35 4 -6 1 -7 -7 -2 -10 6 -6 14 16 32 37 29 23 30
-16 1 -17 -12 -30 -29 -30 -39 0 -9 -13 -22 -29 -29 -31 -12 -47 -35 -31 -45
17 -10 75 31 72 51 -2 16 -1 17 7 4 6 -8 11 -10 11 -4 0 6 10 16 23 22 12 7
32 19 45 28 13 10 22 12 22 5 0 -6 -25 -27 -55 -46 -30 -20 -55 -39 -55 -43 0
-10 -61 -33 -71 -26 -5 3 -18 0 -30 -7 -17 -9 -20 -8 -14 2 6 9 3 10 -11 5
-10 -5 -27 -11 -36 -13 -10 -3 -15 -9 -12 -14 3 -5 1 -9 -5 -9 -5 0 -13 5 -16
10 -3 6 -12 10 -18 10 -8 0 -8 -3 2 -9 8 -5 9 -11 3 -15 -5 -3 -15 1 -22 9
-16 19 -26 19 -58 -3 -28 -19 -112 -54 -112 -46 0 2 20 13 44 25 45 21 89 59
68 59 -7 0 -12 -4 -12 -10 0 -5 -11 -10 -24 -10 -13 0 -26 -4 -28 -8 -6 -15
-75 -52 -96 -52 -11 0 -23 -4 -27 -10 -3 -5 7 -8 25 -5 38 5 50 -12 14 -21
-26 -7 -26 -8 -9 -20 11 -8 13 -14 7 -14 -7 0 -12 -5 -12 -11 0 -5 5 -7 10 -4
6 3 10 0 10 -8 0 -9 -9 -12 -30 -9 -17 2 -37 -2 -46 -9 -14 -11 -16 -9 -13 17
4 48 -3 73 -10 35 -7 -38 -27 -52 -34 -24 -2 10 -2 2 0 -17 3 -32 2 -33 -11
-17 -9 12 -16 14 -21 8 -8 -14 -25 -14 -25 0 0 6 9 13 20 16 11 3 20 9 20 14
0 13 -13 11 -36 -6 -12 -8 -24 -11 -28 -7 -4 3 -4 -2 0 -12 6 -16 4 -18 -13
-14 -14 4 -20 1 -19 -10 0 -9 -8 -17 -19 -19 -11 -1 -14 0 -7 3 6 3 12 10 12
15 0 6 -8 5 -20 -1 -11 -6 -25 -8 -31 -5 -5 4 -16 2 -23 -4 -10 -9 -16 -7 -21
6 -5 10 -7 24 -6 31 1 6 -5 12 -14 12 -8 0 -15 -2 -15 -5 0 -20 25 -112 36
-133 8 -15 14 -32 14 -38 0 -6 11 -21 25 -34 36 -34 54 -14 31 33 -18 40 -20
57 -6 57 5 0 18 -19 29 -42 11 -24 26 -51 33 -60 7 -9 9 -20 5 -24 -4 -4 -13
0 -20 9 -9 12 -16 14 -27 6 -11 -8 -12 -12 -2 -16 20 -8 14 -20 -17 -33 -16
-6 -37 -20 -47 -31 -21 -24 -35 -25 -27 -2 5 16 4 16 -8 3 -32 -36 -47 -42
-71 -29 -22 12 -22 11 -8 -7 8 -10 15 -21 16 -22 3 -4 32 10 109 52 28 15 67
35 87 44 24 11 38 24 38 35 0 11 9 21 20 24 24 6 26 21 5 29 -20 8 -19 28 1
45 14 11 18 10 33 -9 18 -24 48 -22 64 5 4 7 14 13 22 13 19 0 8 28 -13 32 -8
2 -16 13 -17 26 -2 28 2 28 32 -4 13 -14 29 -24 36 -22 24 8 48 71 42 109 -5
31 -3 40 17 53 28 20 44 21 28 1 -10 -12 -10 -15 4 -15 9 0 16 -7 16 -16 0 -8
4 -12 10 -9 5 3 7 19 3 35 -4 22 -1 31 10 36 25 9 46 -8 36 -31 -7 -19 -8 -19
-8 3 -1 12 -6 22 -12 22 -7 0 -9 -10 -7 -25 3 -14 -1 -30 -8 -36 -8 -6 -14
-20 -14 -30 0 -10 -5 -21 -10 -24 -6 -4 -7 -11 -4 -17 5 -8 1 -9 -10 -5 -13 5
-16 3 -12 -11 8 -23 -68 -97 -89 -88 -10 3 -12 0 -8 -11 5 -12 1 -14 -18 -8
-16 4 -20 3 -10 -3 9 -7 3 -11 -25 -14 -26 -3 -42 -1 -47 9 -4 7 -13 13 -19
13 -7 0 -6 -5 2 -15 14 -17 6 -33 -24 -45 l-21 -9 23 0 c30 -1 28 -19 -5 -33
-16 -7 -35 -20 -44 -30 -9 -10 -19 -15 -23 -11 -3 3 -6 1 -6 -6 0 -8 -7 -11
-15 -7 -8 3 -15 1 -15 -4 0 -6 -6 -10 -14 -10 -8 0 -16 -7 -20 -15 -3 -8 -12
-15 -21 -15 -8 0 -15 -4 -15 -10 0 -5 -8 -10 -18 -10 -10 0 -27 -7 -38 -15
-19 -14 -19 -14 3 -15 12 0 24 6 26 13 4 10 6 10 6 0 1 -20 25 -15 39 7 7 11
19 20 27 20 8 0 15 3 15 8 0 4 14 13 32 21 18 8 44 26 58 41 14 14 32 29 40
33 8 4 29 16 45 27 17 11 38 23 48 26 9 4 17 13 17 21 0 8 5 11 10 8 6 -3 17
1 26 9 16 17 34 21 34 9 0 -9 -31 -30 -127 -88 -67 -40 -88 -69 -25 -34 20 12
42 25 47 29 40 31 83 47 101 37 17 -9 18 -9 5 6 -8 10 -12 19 -10 20 2 2 20
13 39 25 19 12 30 22 23 22 -6 0 -15 -4 -18 -10 -9 -15 -22 -12 -29 6 -3 8 -2
13 3 10 5 -3 19 3 32 14 59 49 70 60 62 60 -4 0 0 5 9 11 10 5 21 28 24 49 4
22 12 40 18 40 6 0 4 5 -4 10 -12 7 -8 10 14 10 28 0 29 -1 23 -46 -2 -26 -10
-50 -17 -54 -6 -4 -11 -11 -11 -16 1 -5 -5 -16 -12 -24 -7 -9 -11 -22 -9 -29
2 -7 -5 -15 -17 -18 -12 -3 -21 -9 -21 -13 0 -4 -13 -13 -30 -20 -32 -13 -56
-37 -47 -46 3 -3 16 4 29 15 12 12 24 18 26 12 7 -22 -106 -109 -123 -93 -5 4
-5 1 -1 -5 4 -8 1 -13 -8 -13 -9 0 -16 -4 -16 -10 0 -5 -6 -10 -14 -10 -8 0
-16 -4 -18 -9 -6 -17 -112 -72 -130 -68 -10 3 -18 1 -18 -4 0 -5 18 -9 40 -9
22 0 40 5 40 10 0 6 7 10 15 10 8 0 15 5 15 11 0 6 6 9 14 6 8 -3 17 1 20 10
5 12 9 13 21 3 13 -11 14 -10 9 6 -6 18 -6 18 11 2 17 -16 17 -18 1 -33 -23
-24 -17 -26 27 -11 20 7 34 16 30 20 -4 4 0 4 10 0 10 -3 17 -1 17 5 0 6 7 11
15 11 24 0 17 -18 -12 -34 -16 -8 -22 -15 -14 -16 7 0 29 9 47 21 29 18 32 23
23 40 -9 17 -13 18 -27 8 -10 -8 -8 -4 3 9 l21 22 37 -19 c21 -11 33 -22 28
-26 -6 -3 -20 -1 -31 5 -24 13 -26 7 -5 -14 13 -13 13 -15 -5 -21 -19 -6 -28
-25 -12 -25 25 0 122 87 122 109 1 19 25 53 32 46 13 -13 48 97 48 148 0 30 7
68 15 83 8 16 15 23 15 16 0 -7 5 -10 10 -7 7 4 6 14 -2 28 -7 14 -13 17 -16
9 -6 -19 -21 -14 -19 7 0 10 6 17 13 14 7 -2 15 0 18 6 4 6 13 8 21 4 10 -3
15 1 15 12 0 10 -5 15 -12 12 -7 -3 -21 -8 -30 -12 -38 -15 -16 15 30 41 26
15 55 34 65 42 9 8 20 12 24 9 3 -4 16 0 29 8 20 13 22 13 20 -3 -2 -9 -9 -17
-17 -17 -8 0 -35 -13 -61 -28 -35 -20 -46 -32 -41 -44 6 -14 8 -14 21 3 12 16
14 16 9 2 -7 -20 8 -34 17 -16 3 7 4 0 0 -17 -3 -16 -10 -32 -15 -33 -5 -2
-16 -10 -24 -18 -8 -8 -28 -20 -45 -25 -27 -10 -30 -15 -30 -55 l0 -45 48 27
c70 41 213 139 256 176 36 32 36 34 20 56 -9 13 -22 21 -30 18 -23 -9 -16 1
27 41 l40 38 -20 24 c-22 25 -29 43 -10 24 9 -9 17 -6 31 10 18 21 19 21 13 2
-6 -19 -5 -19 11 -3 10 10 16 19 13 21 -2 1 -35 11 -74 21 -38 10 -77 20 -85
23 -9 2 -19 1 -23 -3z m96 -35 c20 -5 37 -14 37 -20 0 -6 -7 -6 -19 0 -22 12
-37 -9 -18 -28 8 -8 8 -11 -2 -11 -7 0 -10 -4 -6 -10 3 -5 12 -7 20 -3 8 3 15
0 15 -7 0 -6 -4 -8 -10 -5 -5 3 -10 1 -10 -5 0 -7 -7 -10 -15 -7 -8 4 -17 2
-20 -3 -4 -6 2 -10 12 -10 14 0 11 -5 -12 -24 -31 -25 -48 -26 -39 -2 3 8 -2
16 -13 19 -16 4 -15 6 4 12 13 4 21 11 18 15 -3 5 0 12 6 16 7 4 9 3 5 -4 -3
-6 -2 -13 4 -17 5 -3 15 6 20 20 7 19 6 33 -5 53 -8 15 -14 21 -15 14 0 -7 -4
-11 -9 -7 -18 10 -21 -13 -4 -26 10 -8 14 -9 10 -2 -4 6 -3 14 2 17 5 3 11 0
14 -8 3 -8 -5 -18 -21 -25 -14 -7 -42 -25 -63 -42 -35 -27 -70 -38 -69 -21 1
4 25 23 54 42 33 21 52 39 49 47 -3 8 3 20 13 28 23 17 20 17 67 4z m-87 -146
c-3 -8 -1 -11 4 -8 6 3 10 -1 10 -9 0 -33 -28 -15 -35 23 -3 14 1 18 11 14 8
-3 13 -12 10 -20z m-116 2 c0 -2 -12 -11 -27 -20 -16 -9 -41 -24 -58 -35 -16
-11 -40 -25 -52 -31 -21 -11 -21 -12 -5 -48 9 -20 20 -37 25 -39 4 -2 7 -8 7
-13 0 -6 -4 -7 -10 -4 -6 4 -10 -9 -10 -32 -1 -21 -7 -49 -15 -63 -9 -16 -10
-29 -4 -37 7 -7 6 -14 -3 -19 -7 -4 -10 -4 -6 1 4 4 -3 16 -15 26 -18 16 -20
20 -7 28 8 5 19 7 25 3 5 -3 4 2 -3 11 -15 18 -7 41 11 30 8 -4 7 -1 -1 9 -7
9 -9 18 -4 20 12 4 -13 100 -34 133 -9 14 -19 23 -22 21 -2 -3 2 -16 10 -28
23 -35 28 -66 12 -72 -8 -3 -13 -2 -13 2 6 39 -10 72 -37 76 -10 2 -19 8 -19
15 0 6 -6 16 -14 20 -9 6 -10 11 -2 15 6 4 21 0 33 -8 17 -12 25 -13 37 -3 12
9 13 9 7 0 -11 -20 8 -15 32 8 12 11 27 17 33 13 7 -4 -1 -14 -20 -26 -28 -18
-42 -39 -23 -37 4 0 39 20 77 44 64 39 95 53 95 40z m100 -38 c0 -7 -13 -18
-29 -24 -24 -8 -31 -8 -35 3 -3 7 0 16 6 20 7 4 8 3 4 -4 -10 -17 3 -15 20 3
19 18 34 19 34 2z m100 -12 c14 9 13 -8 -2 -23 -17 -17 -31 -15 -24 4 5 14 4
15 -8 5 -14 -12 -15 -10 -7 28 1 2 8 -2 16 -9 8 -6 19 -9 25 -5z m-63 -9 c0
-8 -7 -12 -16 -9 -9 2 -4 -3 12 -12 15 -8 27 -18 27 -21 0 -3 -4 -3 -9 0 -5 3
-14 -1 -21 -10 -7 -8 -19 -13 -26 -10 -7 3 -25 -5 -41 -17 -26 -20 -27 -20
-10 -1 9 11 15 23 12 26 -3 2 5 4 18 3 37 -3 49 5 31 22 -11 12 -12 18 -3 29
15 18 26 18 26 0z m-113 -5 c3 -5 -1 -11 -9 -14 -9 -4 -12 -1 -8 9 6 16 10 17
17 5z m73 -20 c10 -16 9 -19 -5 -17 -9 2 -18 10 -20 19 -5 23 10 21 25 -2z
m-55 -11 c3 -25 2 -30 -6 -29 -5 0 -13 -5 -18 -13 -7 -9 -8 -8 -4 5 3 10 6 25
6 33 0 16 19 20 22 4z m-326 -52 c-1 -13 -11 -24 -22 -26 -11 -2 -15 0 -8 5 6
4 13 16 17 26 9 24 18 21 13 -5z m384 4 c0 -4 -35 -29 -77 -55 -56 -34 -79
-43 -85 -34 -5 8 -8 6 -9 -8 -1 -17 -2 -17 -6 -2 -2 9 -9 14 -15 11 -7 -4 -8
-2 -4 5 4 6 12 9 17 6 5 -4 9 0 9 7 0 10 2 10 9 -1 7 -11 12 -11 31 2 16 11
18 16 8 21 -7 3 -4 4 8 1 13 -3 35 5 60 24 41 31 54 36 54 23z m-275 -42 c3
-5 -1 -10 -9 -10 -8 0 -18 5 -21 10 -3 6 1 10 9 10 8 0 18 -4 21 -10z m-355
-15 c0 -8 -4 -15 -10 -15 -5 0 -10 7 -10 15 0 8 5 15 10 15 6 0 10 -7 10 -15z
m69 -12 c15 -21 20 -24 21 -11 0 9 5 20 10 23 15 9 12 -17 -5 -38 -13 -18 -14
-18 -32 0 -23 23 -36 53 -24 53 5 0 19 -12 30 -27z m155 12 c-7 -16 -24 -21
-24 -6 0 8 7 13 27 20 1 1 0 -6 -3 -14z m-243 -67 c32 -40 35 -48 18 -48 -25
0 -74 84 -63 108 6 15 8 14 11 -3 3 -11 18 -37 34 -57z m-73 50 c-6 -17 -36
-34 -45 -24 -4 4 1 14 11 22 24 17 39 18 34 2z m437 2 c-3 -5 -1 -10 5 -10 8
0 7 -6 -1 -21 -8 -16 -13 -18 -19 -9 -4 7 -13 9 -19 6 -6 -4 -11 -2 -11 3 0 6
8 11 18 12 12 0 13 2 3 6 -11 5 -11 7 0 14 19 12 32 11 24 -1z m-531 -19 c7
-11 -22 -23 -35 -15 -5 3 -9 9 -9 15 0 12 37 12 44 0z m186 -1 c0 -5 -2 -10
-4 -10 -3 0 -8 5 -11 10 -3 6 -1 10 4 10 6 0 11 -4 11 -10z m205 0 c-3 -5 -12
-10 -18 -10 -7 0 -6 4 3 10 19 12 23 12 15 0z m-441 -32 c-7 -10 -3 -10 35 3
17 6 31 15 31 20 0 5 5 9 11 9 5 0 7 -4 4 -10 -3 -5 0 -11 7 -12 7 0 18 -2 23
-2 6 -1 16 -5 24 -10 10 -6 12 -5 7 2 -4 7 -2 12 3 12 17 0 13 -25 -10 -54
-26 -34 -39 -33 -35 2 2 15 1 19 -1 10 -2 -10 -9 -18 -15 -18 -6 0 -8 3 -5 7
4 3 0 14 -9 24 -15 17 -54 15 -54 -3 0 -24 -25 2 -27 28 -2 20 0 25 7 14 5 -8
6 -18 4 -22z m515 -54 c-41 -42 -69 -56 -69 -34 0 6 4 10 9 10 4 0 26 18 47
39 21 22 42 37 47 34 5 -3 -10 -25 -34 -49z m57 -40 c-17 -12 -22 -12 -40 4
-20 16 -20 16 -7 0 14 -19 10 -22 -29 -19 -10 0 -11 -1 -2 -5 17 -8 5 -24 -14
-17 -12 4 -9 12 17 39 18 18 36 31 40 28 4 -2 11 1 14 7 5 7 12 6 24 -6 15
-15 15 -17 -3 -31z m-440 1 c-3 -9 -11 -13 -16 -10 -8 5 -7 11 1 21 14 18 24
11 15 -11z m449 -46 c-26 -29 -35 -35 -30 -20 7 22 6 22 -30 7 -21 -9 -41 -14
-45 -11 -5 3 -10 -3 -12 -12 -3 -15 -7 -13 -22 10 -23 34 -15 45 18 23 23 -14
26 -14 41 0 8 9 22 13 30 10 9 -3 12 0 9 8 -3 7 2 13 10 13 8 0 12 -7 9 -16
-3 -9 6 -4 23 11 42 41 42 24 -1 -23z m-335 32 c0 -5 -11 -11 -24 -13 -17 -4
-23 -1 -19 9 6 14 43 18 43 4z m200 -84 c0 -6 -9 -2 -20 8 -11 10 -20 23 -20
28 0 6 9 2 20 -8 11 -10 20 -23 20 -28z m-32 11 c16 -16 15 -28 -3 -28 -8 0
-15 -4 -15 -10 0 -5 -7 -10 -15 -10 -8 0 -15 -5 -15 -11 0 -6 -7 -9 -15 -5 -9
3 -15 0 -15 -9 0 -21 -17 -18 -30 4 -13 26 -13 31 5 31 8 0 15 4 15 9 0 5 14
12 30 16 17 4 30 11 30 16 0 13 14 11 28 -3z m107 -18 c0 -13 -5 -25 -11 -27
-14 -5 -25 22 -17 42 8 23 28 12 28 -15z"/>
<path d="M1431 604 c0 -11 3 -14 6 -6 3 7 2 16 -1 19 -3 4 -6 -2 -5 -13z"/>
<path d="M1065 240 c-3 -5 -1 -10 4 -10 6 0 11 5 11 10 0 6 -2 10 -4 10 -3 0
-8 -4 -11 -10z"/>
<path d="M2020 749 c0 -5 5 -7 10 -4 6 3 10 8 10 11 0 2 -4 4 -10 4 -5 0 -10
-5 -10 -11z"/>
<path d="M1320 738 c0 -6 3 -8 7 -5 3 4 18 0 31 -9 23 -15 25 -15 19 1 -4 9
-7 19 -7 21 0 2 -11 4 -25 4 -14 0 -25 -5 -25 -12z"/>
<path d="M847 724 c6 -15 23 -19 23 -5 0 5 -7 11 -14 14 -10 4 -13 1 -9 -9z"/>
<path d="M286 715 c-15 -8 -32 -12 -37 -9 -5 3 -8 0 -7 -7 2 -8 -7 -14 -20
-15 -23 -1 -52 -30 -51 -49 0 -5 3 -5 5 2 3 7 37 27 75 45 38 18 69 36 69 40
0 10 0 10 -34 -7z"/>
<path d="M356 705 c-15 -8 -32 -12 -37 -9 -5 3 -9 0 -9 -5 0 -6 -5 -11 -11
-11 -6 0 -25 -10 -42 -23 -18 -13 -51 -29 -75 -36 -24 -7 -66 -25 -95 -42 -29
-16 -58 -33 -66 -37 -8 -5 -17 -14 -19 -20 -2 -7 34 8 80 31 46 24 117 54 158
68 41 13 77 27 78 32 2 4 21 7 42 7 26 0 40 5 44 16 9 24 0 29 -19 10 -17 -17
-45 -22 -45 -8 0 5 15 16 33 25 17 8 28 16 22 16 -5 1 -23 -6 -39 -14z m-31
-35 c-3 -5 -14 -10 -23 -10 -15 0 -15 2 -2 10 20 13 33 13 25 0z"/>
<path d="M1556 671 c-4 -7 -5 -15 -2 -18 9 -9 19 4 14 18 -4 11 -6 11 -12 0z"/>
<path d="M30 630 c8 -5 20 -10 25 -10 6 0 3 5 -5 10 -8 5 -19 10 -25 10 -5 0
-3 -5 5 -10z"/>
<path d="M385 630 c-3 -5 -1 -10 4 -10 6 0 11 5 11 10 0 6 -2 10 -4 10 -3 0
-8 -4 -11 -10z"/>
<path d="M1172 619 c-28 -18 -35 -19 -50 -8 -15 13 -16 12 -3 -3 12 -16 11
-18 -3 -18 -9 0 -16 -4 -16 -10 0 -5 2 -10 5 -10 7 0 105 61 105 66 0 6 -3 5
-38 -17z"/>
<path d="M118 623 c7 -3 16 -2 19 1 4 3 -2 6 -13 5 -11 0 -14 -3 -6 -6z"/>
<path d="M1037 623 c-10 -10 -8 -23 4 -23 5 0 8 4 4 9 -3 5 7 12 22 14 28 4
28 4 2 6 -14 0 -29 -2 -32 -6z"/>
<path d="M78 615 c-3 -3 -20 -7 -38 -10 -35 -4 -54 -15 -26 -15 9 0 14 -5 11
-10 -4 -6 -11 -8 -16 -5 -5 4 -9 -1 -9 -9 0 -11 12 -8 50 16 28 17 50 33 50
34 0 6 -16 5 -22 -1z"/>
<path d="M275 600 c-3 -5 -2 -10 4 -10 5 0 13 5 16 10 3 6 2 10 -4 10 -5 0
-13 -4 -16 -10z"/>
<path d="M1825 589 c-4 -6 -5 -12 -2 -15 2 -3 7 2 10 11 7 17 1 20 -8 4z"/>
<path d="M1630 580 c0 -5 5 -10 11 -10 5 0 7 5 4 10 -3 6 -8 10 -11 10 -2 0
-4 -4 -4 -10z"/>
<path d="M1898 583 c7 -3 16 -2 19 1 4 3 -2 6 -13 5 -11 0 -14 -3 -6 -6z"/>
<path d="M1888 553 c6 -2 18 -2 25 0 6 3 1 5 -13 5 -14 0 -19 -2 -12 -5z"/>
<path d="M52 508 c-20 -20 -14 -27 12 -15 13 7 22 15 20 19 -7 11 -18 10 -32
-4z"/>
<path d="M1555 494 c-9 -15 -12 -23 -6 -20 11 7 35 46 28 46 -3 0 -12 -12 -22
-26z"/>
<path d="M1587 495 c-4 -8 -3 -16 1 -19 4 -3 9 4 9 15 2 23 -3 25 -10 4z"/>
<path d="M781 465 c1 -19 18 -51 18 -35 0 8 -4 22 -9 30 -5 8 -9 11 -9 5z"/>
<path d="M1237 459 c-9 -5 -21 -8 -26 -4 -20 12 -20 -13 0 -31 16 -15 19 -15
14 -2 -4 11 0 18 14 23 12 3 21 11 21 16 0 11 -1 11 -23 -2z"/>
<path d="M921 434 c0 -11 3 -14 6 -6 3 7 2 16 -1 19 -3 4 -6 -2 -5 -13z"/>
<path d="M1435 400 c-3 -6 1 -7 9 -4 18 7 21 14 7 14 -6 0 -13 -4 -16 -10z"/>
<path d="M498 383 c7 -3 16 -2 19 1 4 3 -2 6 -13 5 -11 0 -14 -3 -6 -6z"/>
<path d="M1342 341 c-11 -7 -11 -9 0 -14 9 -3 15 1 15 9 0 8 -1 14 -1 14 -1 0
-7 -4 -14 -9z"/>
<path d="M402 318 c2 -6 10 -13 16 -14 7 -1 8 0 2 3 -5 2 -8 9 -4 14 3 5 0 9
-6 9 -7 0 -10 -5 -8 -12z"/>
<path d="M368 313 c7 -3 16 -2 19 1 4 3 -2 6 -13 5 -11 0 -14 -3 -6 -6z"/>
<path d="M295 280 c-3 -6 1 -7 9 -4 18 7 21 14 7 14 -6 0 -13 -4 -16 -10z"/>
<path d="M936 281 c-4 -5 3 -7 14 -4 23 6 26 13 6 13 -8 0 -17 -4 -20 -9z"/>
<path d="M430 269 c0 -17 106 -137 114 -129 3 3 -14 26 -38 50 -23 25 -50 56
-59 70 -11 16 -17 19 -17 9z"/>
<path d="M1257 273 c-11 -11 -8 -33 5 -33 6 0 8 3 5 7 -4 3 -2 12 4 20 11 13
-2 19 -14 6z"/>
<path d="M1210 249 c0 -5 5 -7 10 -4 6 3 10 8 10 11 0 2 -4 4 -10 4 -5 0 -10
-5 -10 -11z"/>
<path d="M288 243 c7 -3 16 -2 19 1 4 3 -2 6 -13 5 -11 0 -14 -3 -6 -6z"/>
<path d="M1525 219 c-4 -6 -5 -12 -2 -15 2 -3 7 2 10 11 7 17 1 20 -8 4z"/>
<path d="M180 210 c0 -5 5 -10 10 -10 6 0 10 5 10 10 0 6 -4 10 -10 10 -5 0
-10 -4 -10 -10z"/>
<path d="M80 185 c-25 -14 -53 -28 -62 -31 -10 -4 -18 -10 -18 -15 0 -11 28
-1 62 23 14 10 30 18 35 18 5 0 18 7 29 15 30 23 4 17 -46 -10z"/>
<path d="M152 205 c4 -4 0 -14 -10 -21 -15 -12 -15 -13 -1 -14 21 0 32 27 16
36 -7 4 -9 4 -5 -1z"/>
<path d="M168 161 c-20 -13 -24 -21 -17 -31 7 -13 9 -12 9 1 0 20 23 31 48 23
10 -4 13 -2 7 3 -5 4 -12 11 -15 14 -3 4 -17 -1 -32 -10z"/>
<path d="M85 160 c-8 -13 5 -13 25 0 13 8 13 10 -2 10 -9 0 -20 -4 -23 -10z"/>
<path d="M813 149 c-33 -21 -40 -29 -25 -29 8 1 70 50 62 50 -3 0 -20 -10 -37
-21z"/>
<path d="M483 145 c0 -7 6 -11 14 -8 7 3 13 6 13 8 0 2 -6 5 -13 8 -8 3 -14
-1 -14 -8z"/>
<path d="M311 124 c0 -11 3 -14 6 -6 3 7 2 16 -1 19 -3 4 -6 -2 -5 -13z"/>
<path d="M385 120 c3 -5 8 -10 11 -10 2 0 4 5 4 10 0 6 -5 10 -11 10 -5 0 -7
-4 -4 -10z"/>
<path d="M738 104 c-16 -8 -28 -19 -28 -25 0 -5 14 0 30 13 43 31 42 36 -2 12z"/>
<path d="M638 77 c-7 -7 -24 -21 -38 -31 -24 -17 -24 -18 -2 -11 25 7 81 55
64 55 -6 0 -17 -6 -24 -13z"/>
<path d="M360 49 c0 -11 5 -17 10 -14 6 3 10 13 10 21 0 8 -4 14 -10 14 -5 0
-10 -9 -10 -21z"/>
<path d="M680 59 c0 -5 5 -7 10 -4 6 3 10 8 10 11 0 2 -4 4 -10 4 -5 0 -10 -5
-10 -11z"/>
<path d="M1148 63 c7 -3 16 -2 19 1 4 3 -2 6 -13 5 -11 0 -14 -3 -6 -6z"/>
<path d="M1075 50 c-3 -5 -2 -10 4 -10 5 0 13 5 16 10 3 6 2 10 -4 10 -5 0
-13 -4 -16 -10z"/>
<path d="M1098 33 c-10 -2 -18 -9 -18 -14 0 -14 16 -11 30 6 7 8 11 14 9 14
-2 -1 -12 -3 -21 -6z"/>
<path d="M560 16 c0 -9 5 -16 10 -16 6 0 10 4 10 9 0 6 -4 13 -10 16 -5 3 -10
-1 -10 -9z"/>
<path d="M530 10 c0 -5 5 -10 10 -10 6 0 10 5 10 10 0 6 -4 10 -10 10 -5 0
-10 -4 -10 -10z"/>
</g>
</svg>
