<?xml version="1.0" standalone="no"?>
<!DOCTYPE svg PUBLIC "-//W3C//DTD SVG 20010904//EN"
 "http://www.w3.org/TR/2001/REC-SVG-20010904/DTD/svg10.dtd">
<svg version="1.0" xmlns="http://www.w3.org/2000/svg"
 width="300.000000pt" height="168.000000pt" viewBox="0 0 300.000000 168.000000"
 preserveAspectRatio="xMidYMid meet">

<g transform="translate(0.000000,168.000000) scale(0.100000,-0.100000)"
fill="#000000" stroke="none">
<path d="M1 1393 c1 -159 4 -278 6 -265 5 26 20 29 26 5 4 -15 5 -16 6 -2 1
19 41 33 55 19 7 -7 5 -10 -4 -10 -10 0 -8 -4 5 -14 25 -18 13 -46 -20 -46
-14 0 -25 6 -25 13 0 9 -2 9 -8 -1 -5 -7 -16 -10 -25 -6 -15 5 -17 -3 -17 -64
l0 -70 32 4 c18 3 39 7 46 9 7 3 12 -4 12 -17 0 -12 -3 -18 -7 -15 -3 4 -12 2
-19 -3 -6 -6 -16 -10 -20 -9 -25 4 -44 -3 -44 -15 0 -12 7 -13 32 -5 45 12 48
12 48 -11 0 -17 -7 -20 -41 -20 l-41 0 4 -42 c3 -24 8 -52 13 -62 6 -14 5 -17
-3 -12 -7 4 -12 1 -12 -9 0 -14 7 -16 43 -9 74 13 91 13 104 2 10 -8 13 -6 13
6 0 9 5 16 10 16 6 0 10 -4 10 -10 0 -5 5 -10 10 -10 6 0 10 6 10 14 0 8 8 14
18 14 9 -1 30 2 47 6 16 4 27 4 23 0 -4 -4 -2 -14 4 -22 10 -11 9 -13 -7 -11
-11 2 -25 0 -32 -4 -6 -4 -14 -3 -18 3 -3 5 -11 10 -16 10 -6 0 -8 -4 -5 -9 6
-9 -128 -35 -181 -36 -25 0 -33 -4 -33 -18 0 -14 5 -16 26 -11 22 6 25 4 22
-12 -2 -11 -13 -20 -26 -22 -24 -4 -27 -14 -12 -43 7 -13 7 -19 0 -19 -6 0
-10 -36 -10 -95 0 -76 3 -97 15 -101 19 -8 19 -30 0 -38 -10 -3 -15 -19 -15
-47 0 -31 3 -40 14 -36 8 3 16 -2 19 -14 4 -14 1 -19 -11 -17 -14 2 -18 -7
-20 -45 -2 -33 0 -47 7 -42 6 3 14 -1 18 -11 4 -10 0 -20 -10 -26 -12 -6 -17
-23 -17 -58 l0 -50 94 0 c55 0 98 4 101 10 5 8 11 7 21 -1 11 -9 14 -8 14 7 1
18 1 18 14 2 16 -22 27 -23 20 -3 -4 9 1 17 12 21 11 3 26 9 35 14 20 10 29 3
29 -21 0 -10 -9 -19 -22 -22 -13 -2 586 -5 1330 -6 l1352 -1 0 388 c0 213 -4
392 -9 397 -13 15 -80 208 -102 295 -10 41 -32 122 -49 180 -37 129 -37 140
-5 140 22 0 25 -4 25 -33 0 -18 4 -37 9 -42 4 -6 14 -31 21 -57 7 -27 19 -49
26 -49 8 -1 19 -3 24 -4 6 -1 15 -3 22 -4 7 0 4 -7 -7 -15 -22 -16 -13 -51 10
-42 8 3 15 1 15 -3 0 -5 -5 -11 -12 -13 -16 -6 -2 -38 17 -38 12 0 15 14 15
70 0 49 -4 70 -12 70 -10 0 -10 2 0 9 9 5 12 31 10 92 l-3 84 -40 -5 c-22 -2
-62 -4 -90 -5 -47 0 -50 2 -50 25 0 27 1 27 108 31 26 1 50 6 53 10 3 5 10 7
15 4 5 -4 9 35 9 94 l0 101 -1500 0 -1500 0 1 -287z m2537 6 c3 -25 2 -26 -92
-37 -141 -18 -163 -16 -169 10 -8 28 -8 28 44 34 24 2 64 6 88 8 24 3 45 7 47
9 3 2 21 4 42 3 32 -1 37 -4 40 -27z m-268 -39 c0 -12 -7 -20 -17 -21 -10 0
-29 -2 -43 -4 -129 -19 -181 -9 -166 31 4 11 14 14 35 9 18 -4 32 -2 36 5 5 8
22 10 49 6 22 -3 48 -2 55 3 20 13 51 -5 51 -29z m360 6 c0 -3 -4 -8 -10 -11
-5 -3 -10 -1 -10 4 0 6 5 11 10 11 6 0 10 -2 10 -4z m-113 -36 c35 0 27 -6
-19 -14 -31 -6 -38 -4 -38 10 0 11 5 14 16 10 9 -3 27 -6 41 -6z m-911 -25 c4
-8 3 -22 0 -30 -4 -12 -10 -14 -25 -5 -13 7 -22 7 -26 0 -3 -5 -17 -10 -31
-10 -18 0 -24 6 -25 23 -1 18 -3 16 -9 -8 -4 -16 -8 -23 -9 -15 -1 12 -3 12
-10 2 -5 -9 -34 -15 -79 -17 -40 -2 -75 -5 -79 -7 -5 -3 -24 -5 -44 -7 -30 -2
-37 2 -42 19 -6 25 13 36 38 22 12 -6 28 -3 53 10 24 12 47 16 68 12 18 -3 35
-1 38 5 11 17 39 13 32 -4 -3 -8 -1 -15 4 -15 6 0 10 7 10 15 0 19 17 19 53 1
15 -8 27 -11 27 -5 0 5 -4 9 -10 9 -5 0 -10 5 -10 10 0 16 70 12 76 -5z m804
5 c-19 -13 -30 -13 -30 0 0 6 10 10 23 10 18 0 19 -2 7 -10z m-170 -20 c0 -5
-7 -10 -15 -10 -8 0 -15 5 -15 10 0 6 7 10 15 10 8 0 15 -4 15 -10z m-180 -9
c0 -5 11 -23 25 -40 19 -22 24 -36 19 -56 -4 -17 -1 -32 10 -44 11 -12 15 -27
11 -43 -8 -30 18 -96 40 -104 8 -3 15 -12 15 -20 0 -7 6 -12 13 -10 48 15 67
16 67 1 0 -18 -40 -29 -69 -20 -15 5 -21 2 -21 -10 0 -9 4 -13 10 -10 6 3 7
-1 4 -9 -4 -11 0 -16 11 -16 9 0 13 -5 9 -11 -4 -8 -1 -8 12 -1 11 5 39 12 64
16 41 5 43 5 26 -9 -11 -8 -23 -15 -27 -15 -4 0 -19 -4 -34 -10 -22 -8 -24
-13 -15 -30 6 -11 16 -17 25 -14 9 4 15 0 15 -10 0 -9 -5 -16 -11 -16 -13 0
-6 -67 8 -81 5 -5 26 -4 47 2 27 7 42 7 49 0 7 -7 -4 -14 -36 -23 -26 -7 -47
-16 -47 -20 0 -4 12 -3 27 3 17 6 30 6 36 0 10 -10 5 -13 -40 -27 -7 -2 -13
-13 -13 -24 0 -21 10 -24 48 -14 14 4 21 12 18 21 -8 21 45 39 56 19 11 -20
38 -9 38 15 0 11 7 19 16 19 11 0 14 -5 10 -17 -4 -10 3 -6 17 9 32 35 65 44
80 23 15 -19 43 -11 58 17 8 15 13 17 24 8 16 -13 39 -4 30 11 -4 5 1 12 9 15
9 3 16 13 16 22 0 12 5 9 17 -8 9 -14 23 -31 30 -38 16 -17 17 -47 1 -59 -24
-18 -478 -165 -491 -159 -6 4 -23 13 -37 21 -17 10 -28 11 -37 4 -7 -6 -17 -8
-23 -4 -13 8 -3 26 13 24 7 -1 19 1 28 5 14 6 10 25 -27 154 -23 81 -65 235
-93 342 -29 107 -54 203 -57 213 -4 11 0 17 10 17 9 0 16 -4 16 -9z m325 0 c8
-14 -13 -24 -33 -16 -14 5 -14 7 -2 15 19 12 27 12 35 1z m66 0 c-8 -5 -20 -7
-28 -4 -21 8 -15 13 15 13 20 0 23 -3 13 -9z m-1267 -38 c8 -20 1 -27 -19 -20
-8 4 -15 15 -15 26 0 24 25 19 34 -6z m520 12 c-4 -8 -1 -15 5 -15 6 0 11 5
11 10 0 6 9 10 20 10 30 0 24 -17 -7 -23 -31 -6 -49 5 -39 22 10 16 16 13 10
-4z m531 6 c3 -5 1 -12 -5 -16 -5 -3 -10 1 -10 9 0 18 6 21 15 7z m262 -17
c-9 -9 -28 6 -21 18 4 6 10 6 17 -1 6 -6 8 -13 4 -17z m-1448 -14 c8 -24 7
-30 -5 -30 -7 0 -14 6 -14 14 0 8 -3 21 -6 30 -3 9 -2 16 4 16 6 0 15 -13 21
-30z m81 10 c-12 -8 -11 -10 5 -10 13 0 16 -3 8 -11 -18 -18 -77 -7 -81 15 -3
15 1 18 21 14 14 -3 31 -1 39 3 7 4 15 6 17 3 3 -3 -1 -9 -9 -14z m674 11 c3
-4 3 -11 0 -14 -8 -8 -34 3 -34 14 0 11 27 12 34 0z m376 0 c0 -16 -19 -23
-43 -15 -21 7 -21 7 -2 15 28 11 45 11 45 0z m-1162 -25 c5 -23 -18 -39 -35
-24 -7 6 -13 19 -13 30 0 26 43 21 48 -6z m1382 14 c-8 -5 -28 -10 -45 -10
-23 0 -27 3 -15 10 8 5 29 10 45 10 23 0 27 -3 15 -10z m-1459 -10 c21 0 23
-8 9 -30 -7 -12 -12 -12 -21 -3 -10 10 -17 9 -31 -4 -17 -15 -19 -15 -38 2
-28 25 -8 49 33 41 16 -3 38 -6 48 -6z m907 -8 c2 -7 -2 -10 -12 -6 -9 3 -16
11 -16 16 0 13 23 5 28 -10z m-161 -8 c2 -6 -2 -11 -9 -11 -7 0 -25 -4 -39 -8
-26 -7 -46 6 -35 23 7 12 79 8 83 -4z m600 10 c-3 -3 -12 -4 -19 -1 -8 3 -5 6
6 6 11 1 17 -2 13 -5z m198 -4 c-3 -5 -10 -10 -16 -10 -5 0 -9 5 -9 10 0 6 7
10 16 10 8 0 12 -4 9 -10z m-268 -7 c-11 -10 -57 -13 -57 -2 0 5 14 9 32 9 17
0 28 -3 25 -7z m233 -3 c0 -5 -4 -10 -10 -10 -5 0 -10 5 -10 10 0 6 5 10 10
10 6 0 10 -4 10 -10z m-892 -21 c3 -11 1 -11 -7 1 -6 8 -11 10 -11 4 0 -14
-33 -14 -42 0 -5 7 -8 4 -8 -6 0 -10 7 -18 15 -18 8 0 15 -8 14 -17 0 -11 -3
-13 -6 -5 -2 6 -9 12 -14 12 -6 0 -7 -4 -4 -10 9 -14 -44 -25 -58 -11 -6 6 -8
12 -4 12 4 1 12 3 17 4 6 1 17 3 26 4 8 0 12 6 9 11 -4 6 -4 17 -1 25 7 18 69
13 74 -6z m330 2 c3 -8 -1 -12 -9 -9 -7 2 -15 10 -17 17 -3 8 1 12 9 9 7 -2
15 -10 17 -17z m442 9 c0 -5 -4 -10 -10 -10 -5 0 -10 5 -10 10 0 6 5 10 10 10
6 0 10 -4 10 -10z m215 0 c3 -5 -1 -10 -10 -10 -9 0 -13 5 -10 10 3 6 8 10 10
10 2 0 7 -4 10 -10z m-1122 -15 c4 -8 3 -16 -1 -19 -4 -3 -9 4 -9 15 -2 23 3
25 10 4z m847 5 c0 -5 -7 -10 -15 -10 -8 0 -15 5 -15 10 0 6 7 10 15 10 8 0
15 -4 15 -10z m-870 -21 c0 -6 -4 -7 -10 -4 -5 3 -10 11 -10 16 0 6 5 7 10 4
6 -3 10 -11 10 -16z m287 7 c-5 -16 -27 -19 -27 -3 0 7 7 14 15 14 9 0 14 -5
12 -11z m773 6 c0 -4 -11 -9 -26 -10 -14 -1 -23 2 -20 6 6 10 46 13 46 4z
m-1180 -21 c0 -5 -8 -11 -18 -13 -11 -3 -19 0 -19 8 0 7 4 11 9 8 4 -3 8 0 8
6 0 6 5 8 10 5 6 -3 10 -10 10 -14z m338 0 c3 -8 -1 -12 -9 -9 -8 3 -22 1 -31
-3 -10 -6 -19 -5 -24 2 -4 8 -9 7 -15 -2 -7 -11 -9 -10 -9 5 0 14 6 17 25 14
14 -3 22 -1 19 4 -4 5 4 8 17 6 12 -1 24 -9 27 -17z m746 -3 c-7 -11 60 -7
128 7 15 3 29 1 33 -5 3 -5 -12 -12 -34 -16 -33 -5 -40 -10 -38 -27 2 -18 -5
-22 -41 -27 -44 -7 -66 5 -41 21 10 6 3 9 -21 9 -32 1 -33 2 -17 14 10 8 17
18 16 22 -3 18 1 25 11 19 6 -4 7 -11 4 -17z m-1167 -10 c2 -18 0 -20 -7 -8
-12 18 -13 30 -2 30 4 0 9 -10 9 -22z m717 6 c4 -10 1 -14 -6 -12 -15 5 -23
28 -10 28 5 0 13 -7 16 -16z m866 6 c0 -5 -4 -10 -10 -10 -5 0 -10 5 -10 10 0
6 5 10 10 10 6 0 10 -4 10 -10z m-533 -12 c-2 -8 -23 -13 -51 -14 -48 -1 -52
11 -6 19 48 8 62 7 57 -5z m-875 -7 c3 10 6 9 10 -3 5 -11 0 -18 -13 -21 -14
-4 -19 0 -19 16 0 16 3 18 9 8 7 -11 9 -11 13 0z m278 -1 c0 13 1 13 10 0 6
-10 4 -17 -6 -23 -19 -11 -40 6 -29 23 6 9 10 9 16 -1 7 -11 9 -11 9 1z m-756
-16 c-1 -5 -4 -24 -7 -41 -5 -23 -3 -33 6 -33 8 0 7 -4 -3 -10 -13 -8 -11 -11
8 -16 26 -7 26 -8 11 -49 -17 -46 -5 -85 26 -85 26 0 42 -15 25 -23 -6 -3 -5
-4 2 -3 7 2 12 11 12 20 -3 29 16 17 23 -15 3 -17 9 -27 12 -22 6 10 41 25 41
19 0 -3 3 -11 6 -20 3 -9 1 -16 -6 -16 -6 0 -8 5 -5 10 9 15 -4 12 -20 -4 -17
-16 -1 -94 22 -113 9 -7 12 -19 9 -31 -9 -26 3 -72 16 -69 6 1 13 -4 15 -10 3
-7 0 -13 -6 -13 -6 0 -11 -5 -11 -11 0 -5 4 -7 10 -4 6 3 7 -1 4 -9 -4 -10 -1
-16 7 -16 11 0 12 -2 1 -9 -17 -10 -5 -61 14 -61 17 0 17 -5 4 -30 -12 -23 -3
-70 13 -67 6 1 13 -6 15 -16 3 -14 -1 -17 -21 -12 -14 4 -28 2 -31 -4 -4 -6
-1 -11 6 -11 7 0 2 -9 -11 -19 -14 -11 -26 -33 -30 -56 -7 -46 -27 -56 -34
-18 -3 15 -24 100 -46 188 -23 87 -62 259 -87 382 -25 122 -49 237 -55 255
-13 45 -12 46 19 51 34 5 47 2 46 -9z m95 3 c8 -10 7 -14 -4 -14 -8 0 -15 6
-15 14 0 7 2 13 4 13 2 0 9 -6 15 -13z m297 -12 c1 -8 -2 -15 -6 -15 -5 0 -8
9 -7 20 1 21 10 18 13 -5z m1254 15 c0 -5 -7 -10 -16 -10 -8 0 -12 5 -9 10 3
6 10 10 16 10 5 0 9 -4 9 -10z m-1280 -16 c0 -8 -4 -12 -10 -9 -5 3 -10 10
-10 16 0 5 5 9 10 9 6 0 10 -7 10 -16z m278 -2 c2 -6 -6 -10 -17 -9 -12 1 -21
7 -21 13 0 15 33 11 38 -4z m1248 -15 c2 -12 3 -42 4 -67 2 -84 21 -148 57
-190 34 -40 34 -52 1 -26 -10 7 -18 18 -18 25 0 6 -4 11 -9 11 -5 0 -13 12
-19 28 -6 15 -14 36 -18 47 -13 35 -26 182 -17 198 7 12 16 0 19 -26z m-1596
14 c0 -12 -8 -16 -42 -25 -18 -4 -28 -2 -28 4 0 6 5 8 10 5 6 -3 10 -1 10 5 0
7 8 9 21 5 15 -5 19 -4 15 4 -4 6 -2 11 3 11 6 0 11 -4 11 -9z m300 -7 c0 -8
-10 -14 -24 -14 -13 0 -31 -3 -39 -6 -8 -3 -17 2 -21 13 -6 14 -4 15 5 6 9 -9
14 -9 24 0 17 18 55 19 55 1z m440 -6 c0 -19 -2 -20 -10 -8 -13 19 -13 30 0
30 6 0 10 -10 10 -22z m320 18 c0 -3 -4 -8 -10 -11 -5 -3 -10 -1 -10 4 0 6 5
11 10 11 6 0 10 -2 10 -4z m-1140 -15 c0 -6 -4 -12 -8 -15 -5 -3 -9 1 -9 9 0
8 4 15 9 15 4 0 8 -4 8 -9z m570 -12 c0 -5 -4 -9 -10 -9 -5 0 -10 7 -10 16 0
8 5 12 10 9 6 -3 10 -10 10 -16z m915 11 c-3 -5 -15 -10 -26 -10 -11 0 -17 5
-14 10 3 6 15 10 26 10 11 0 17 -4 14 -10z m-1532 -19 c-9 -9 -17 -11 -21 -4
-4 5 -14 12 -22 15 -8 3 1 5 21 5 32 -1 35 -3 22 -16z m257 -3 c0 -18 -2 -20
-9 -8 -6 8 -7 18 -5 22 9 14 14 9 14 -14z m24 7 c3 -8 1 -15 -4 -15 -6 0 -10
7 -10 15 0 8 2 15 4 15 2 0 6 -7 10 -15z m306 0 c0 -6 -11 -11 -25 -11 -14 0
-25 6 -25 13 0 8 10 12 25 11 14 -1 25 -7 25 -13z m673 0 c1 -5 -10 -11 -25
-13 -16 -2 -28 1 -28 7 0 20 49 26 53 6z m-2038 -21 c0 -10 -8 -20 -18 -22
-22 -4 -35 27 -16 39 20 12 34 5 34 -17z m705 14 c0 -4 8 -5 18 -1 9 3 14 3
10 -1 -3 -4 -20 -10 -37 -12 -23 -4 -31 -1 -31 10 0 9 8 14 20 13 11 -1 20 -5
20 -9z m258 -19 c-3 -8 -7 -3 -11 10 -4 17 -3 21 5 13 5 -5 8 -16 6 -23z m335
16 c3 -6 -4 -12 -14 -12 -10 -1 -19 4 -19 11 0 16 28 17 33 1z m887 5 c0 -5
-8 -10 -17 -10 -15 0 -16 2 -3 10 19 12 20 12 20 0z m225 -71 c28 -90 33 -139
12 -117 -7 7 -16 21 -20 31 -8 23 -33 17 -29 -7 2 -9 -2 -16 -8 -16 -5 0 -10
4 -10 9 0 5 -2 15 -5 23 -3 7 5 17 17 23 13 6 22 13 21 18 -2 4 -3 21 -3 38 0
30 -1 31 -35 25 -22 -4 -35 -3 -35 4 0 5 7 10 16 10 11 0 14 6 9 20 -5 16 -2
20 19 20 23 0 28 -8 51 -81z m-2337 59 c-7 -19 -45 -21 -51 -4 -5 12 1 16 24
16 20 0 29 -4 27 -12z m73 -3 c0 -5 -12 -11 -26 -13 -18 -2 -25 1 -25 13 0 12
7 15 25 13 14 -2 26 -7 26 -13z m769 6 c0 -6 -4 -12 -8 -15 -5 -3 -9 1 -9 9 0
8 4 15 9 15 4 0 8 -4 8 -9z m24 -6 c3 -8 1 -15 -4 -15 -6 0 -10 7 -10 15 0 8
2 15 4 15 2 0 6 -7 10 -15z m506 -13 c0 -15 -2 -15 -10 -2 -13 20 -13 33 0 25
6 -3 10 -14 10 -23z m470 7 c0 -16 4 -19 21 -14 15 5 20 3 17 -6 -3 -8 -17
-15 -33 -17 -21 -3 -26 0 -22 12 3 8 1 16 -5 18 -6 2 -8 10 -4 16 11 19 26 14
26 -9z m200 6 c0 -8 -4 -15 -10 -15 -5 0 -10 7 -10 15 0 8 5 15 10 15 6 0 10
-7 10 -15z m-1895 -25 c3 -6 -4 -10 -18 -10 -29 0 -37 7 -30 26 5 14 35 4 48
-16z m663 5 c-3 -3 -9 2 -12 12 -6 14 -5 15 5 6 7 -7 10 -15 7 -18z m242 -1
c0 -9 -8 -13 -22 -11 -28 5 -35 24 -11 29 23 6 33 0 33 -18z m300 5 c0 -5 -4
-9 -10 -9 -5 0 -10 7 -10 16 0 8 5 12 10 9 6 -3 10 -10 10 -16z m233 7 c6 -16
-2 -28 -14 -20 -12 7 -11 34 0 34 5 0 11 -6 14 -14z m587 -1 c0 -8 7 -15 15
-15 8 0 15 -9 15 -19 0 -11 6 -22 13 -24 7 -3 5 -6 -5 -6 -10 -1 -18 4 -18 9
0 6 -7 10 -15 10 -8 0 -15 6 -15 14 0 8 -3 21 -6 30 -3 9 -1 16 5 16 6 0 11
-7 11 -15z m-1524 -21 c-4 -10 -2 -13 6 -8 7 4 8 3 4 -5 -4 -6 -12 -9 -17 -6
-13 8 -11 35 2 35 6 0 8 -7 5 -16z m34 0 c0 -8 -4 -12 -10 -9 -5 3 -10 10 -10
16 0 5 5 9 10 9 6 0 10 -7 10 -16z m240 -6 c0 -18 -2 -20 -9 -8 -6 8 -7 18 -5
22 9 14 14 9 14 -14z m30 1 c0 -6 -4 -7 -10 -4 -5 3 -10 11 -10 16 0 6 5 7 10
4 6 -3 10 -11 10 -16z m240 0 c0 -23 -30 -23 -38 0 -3 10 0 12 12 8 9 -4 16
-2 16 3 0 6 2 10 5 10 3 0 5 -9 5 -21z m50 6 c0 -8 -8 -15 -18 -15 -10 0 -19
7 -19 15 0 8 9 15 19 15 10 0 18 -7 18 -15z m838 1 c-2 -5 8 -13 22 -18 18 -7
21 -11 11 -17 -8 -5 -10 -14 -6 -21 4 -7 2 -16 -6 -21 -19 -12 -59 -11 -59 1
0 6 6 10 14 10 11 0 14 10 11 41 -2 24 0 39 6 37 6 -2 9 -7 7 -12z m450 -11
c-3 -3 -9 2 -12 12 -6 14 -5 15 5 6 7 -7 10 -15 7 -18z m-2742 -5 c8 7 13 6
17 -4 4 -9 -4 -16 -25 -20 -36 -7 -43 -3 -34 20 5 13 10 14 18 6 8 -8 15 -8
24 -2z m54 -11 c0 -5 -4 -9 -8 -9 -5 0 -9 7 -9 15 0 8 4 12 9 9 4 -3 8 -9 8
-15z m360 -15 c0 -17 -10 -17 -32 0 -13 9 -14 16 -6 24 14 14 38 -2 38 -24z
m880 15 c0 -11 -4 -17 -10 -14 -5 3 -10 13 -10 21 0 8 5 14 10 14 6 0 10 -9
10 -21z m24 6 c3 -8 1 -15 -4 -15 -6 0 -10 7 -10 15 0 8 2 15 4 15 2 0 6 -7
10 -15z m230 -1 c3 -8 2 -13 -3 -9 -5 3 -11 1 -13 -4 -1 -5 -30 -13 -63 -17
-65 -7 -125 -26 -70 -21 21 1 31 -3 33 -15 2 -13 -3 -18 -20 -19 -13 0 -31 -2
-40 -4 -15 -3 -17 2 -12 22 4 15 3 24 -2 20 -5 -3 -33 -8 -61 -11 -46 -5 -53
-3 -52 12 0 10 3 12 6 5 2 -7 9 -13 14 -13 6 0 7 5 4 10 -3 6 0 10 7 11 7 0
29 3 48 6 19 3 52 5 72 5 21 1 35 4 33 8 -3 4 9 10 25 12 17 3 30 0 30 -6 0
-7 3 -7 8 0 4 7 16 14 27 17 11 2 21 5 21 6 1 0 5 -6 8 -15z m654 4 c-6 -16
-64 -26 -98 -18 -22 6 -20 8 20 17 63 15 82 15 78 1z m-2258 -33 c0 -5 -5 -3
-10 5 -5 8 -10 20 -10 25 0 6 5 3 10 -5 5 -8 10 -19 10 -25z m1013 20 c4 -8 3
-16 -1 -19 -4 -3 -9 4 -9 15 -2 23 3 25 10 4z m847 -5 c0 -11 -4 -20 -10 -20
-5 0 -10 9 -10 20 0 11 5 20 10 20 6 0 10 -9 10 -20z m680 10 c0 -5 -4 -10
-10 -10 -5 0 -10 5 -10 10 0 6 5 10 10 10 6 0 10 -4 10 -10z m-1579 -12 c0
-10 2 -10 6 0 2 6 9 10 14 6 11 -6 12 -24 2 -23 -5 1 -10 1 -13 -1 -29 -11
-50 -8 -50 8 0 14 2 15 10 2 9 -13 14 -7 11 13 0 4 4 7 9 7 6 0 10 -6 11 -12z
m299 0 c0 6 5 12 10 12 6 0 10 -7 10 -15 0 -8 -9 -15 -20 -15 -12 0 -20 7 -20
18 0 14 2 15 10 2 6 -10 10 -11 10 -2z m-360 -18 c0 -11 -2 -20 -4 -20 -2 0
-6 9 -9 20 -3 11 -1 20 4 20 5 0 9 -9 9 -20z m280 6 c0 -14 -29 -31 -38 -21
-6 6 18 35 29 35 5 0 9 -6 9 -14z m1115 4 c3 -5 1 -10 -4 -10 -6 0 -11 5 -11
10 0 6 2 10 4 10 3 0 8 -4 11 -10z m-1185 -12 c0 6 7 12 15 12 20 0 8 -27 -16
-33 -10 -3 -17 -1 -13 4 3 5 0 9 -5 9 -6 0 -11 -6 -11 -12 0 -9 -3 -8 -10 2
-11 18 21 34 32 16 6 -8 8 -7 8 2z m510 -10 c0 -5 -7 -7 -16 -4 -10 4 -13 2
-8 -6 5 -7 -1 -9 -19 -6 -15 3 -28 0 -31 -6 -2 -6 -5 -2 -5 10 -1 12 5 21 14
21 8 0 12 -4 9 -9 -9 -14 6 -9 23 7 15 16 33 12 33 -7z m810 18 c0 -3 -4 -8
-10 -11 -5 -3 -10 -1 -10 4 0 6 5 11 10 11 6 0 10 -2 10 -4z m-2302 -24 c5
-17 -56 -12 -63 6 -3 10 3 12 27 10 17 -2 33 -9 36 -16z m922 3 c0 -8 -2 -15
-4 -15 -2 0 -6 7 -10 15 -3 8 -1 15 4 15 6 0 10 -7 10 -15z m1480 6 c0 -5 -7
-11 -15 -15 -9 -3 -15 0 -15 9 0 8 7 15 15 15 8 0 15 -4 15 -9z m-2490 -16 c0
-8 -4 -15 -10 -15 -5 0 -10 7 -10 15 0 8 5 15 10 15 6 0 10 -7 10 -15z m465
-6 c4 -11 4 -23 1 -27 -10 -9 -39 25 -32 37 11 17 24 13 31 -10z m1355 1 c0
-11 -4 -20 -10 -20 -5 0 -10 9 -10 20 0 11 5 20 10 20 6 0 10 -9 10 -20z m615
0 c4 -11 11 -18 16 -15 5 4 9 1 9 -4 0 -6 -5 -11 -11 -11 -6 0 -8 -8 -4 -19 3
-12 0 -21 -10 -24 -8 -4 -12 -13 -9 -21 3 -8 1 -17 -5 -21 -20 -11 -13 -45 9
-45 28 0 25 -17 -4 -24 -13 -3 -31 -9 -40 -12 -11 -4 -16 -1 -16 10 0 9 -4 16
-10 16 -18 0 -10 29 10 35 11 4 18 11 14 16 -3 6 2 17 12 24 11 9 14 14 7 15
-21 0 -15 17 8 23 18 5 19 8 7 26 -16 26 -43 23 -43 -3 0 -11 -6 -21 -12 -23
-8 -3 -13 4 -13 16 0 12 -1 24 -2 29 -3 6 53 30 74 31 4 1 10 -8 13 -19z
m-805 -18 c0 -15 -2 -15 -10 -2 -13 20 -13 33 0 25 6 -3 10 -14 10 -23z m610
13 c0 -11 -12 -15 -47 -14 l-48 1 30 13 c40 19 65 18 65 0z m-1096 -4 c6 -10
-24 -25 -32 -16 -3 3 1 5 9 5 11 0 11 2 -1 10 -13 8 -13 10 2 10 9 0 19 -4 22
-9z m219 -8 c-3 -7 -11 -13 -19 -13 -8 0 -17 0 -21 -1 -17 -1 -13 20 4 23 32
7 41 5 36 -9z m247 -4 c0 -6 -4 -7 -10 -4 -5 3 -10 11 -10 16 0 6 5 7 10 4 6
-3 10 -11 10 -16z m670 -4 c0 -8 -6 -15 -12 -16 -7 0 -21 -2 -30 -4 -25 -5
-22 10 5 23 31 15 37 14 37 -3z m-1287 -10 c4 -8 3 -16 -1 -19 -4 -3 -9 4 -9
15 -2 23 3 25 10 4z m265 -6 c3 -11 1 -11 -7 1 -9 13 -11 12 -11 -3 0 -11 -5
-17 -12 -14 -7 2 -23 0 -35 -4 -18 -7 -23 -5 -23 7 0 8 5 12 10 9 6 -3 10 -2
10 4 0 21 62 22 68 0z m242 4 c0 -15 -2 -16 -10 -3 -9 13 -10 13 -10 0 0 -13
-1 -13 -10 0 -8 13 -10 12 -10 -4 0 -16 -3 -17 -12 -8 -10 10 -10 15 2 22 24
16 50 12 50 -7z m-1520 -13 c0 -11 -4 -20 -9 -20 -7 0 -8 17 -2 38 4 10 11 -2
11 -18z m45 0 c0 -8 -8 -16 -17 -18 -13 -2 -18 3 -18 18 0 15 5 20 18 18 9 -2
17 -10 17 -18z m915 10 c0 -5 -2 -10 -4 -10 -3 0 -8 5 -11 10 -3 6 -1 10 4 10
6 0 11 -4 11 -10z m30 -11 c0 -5 -4 -9 -10 -9 -5 0 -10 7 -10 16 0 8 5 12 10
9 6 -3 10 -10 10 -16z m457 6 c0 -8 -4 -12 -9 -9 -5 3 -6 10 -3 15 9 13 12 11
12 -6z m-934 -37 c-7 -13 -23 -9 -30 8 -3 9 0 20 8 25 14 8 31 -18 22 -33z
m414 20 c-3 -8 -6 -5 -6 6 -1 11 2 17 5 13 3 -3 4 -12 1 -19z m463 -4 c0 -8
-9 -14 -20 -14 -11 0 -20 5 -20 11 0 5 -5 7 -10 4 -6 -4 -8 -11 -5 -16 4 -5
-3 -9 -14 -9 -13 0 -21 6 -21 18 0 14 2 15 10 2 9 -14 14 -7 11 13 -1 5 2 6 6
4 5 -2 17 -1 28 3 24 9 35 4 35 -16z m450 11 c0 -8 -4 -15 -10 -15 -5 0 -10 7
-10 15 0 8 5 15 10 15 6 0 10 -7 10 -15z m-262 -15 c3 -9 -1 -11 -12 -7 -10 4
-15 3 -11 -3 3 -6 1 -10 -4 -10 -6 0 -11 9 -11 19 0 22 31 23 38 1z m762 4 c0
-11 6 -14 20 -9 24 7 27 -10 4 -19 -25 -10 -34 -7 -34 9 0 8 -4 15 -10 15 -5
0 -10 5 -10 10 0 6 7 10 15 10 8 0 15 -7 15 -16z m-1279 -14 c6 0 7 5 4 10 -3
6 -1 10 4 10 19 0 12 -28 -9 -33 -23 -6 -35 7 -24 25 6 9 9 9 12 0 2 -7 8 -12
13 -12z m1477 -20 c0 -16 -4 -30 -9 -30 -5 0 -9 7 -9 15 0 8 -6 15 -14 15 -26
0 -28 20 -4 29 30 11 35 8 36 -29z m51 13 c-1 -17 -3 -21 -6 -10 -2 9 -9 17
-14 17 -5 0 -9 5 -9 10 0 6 7 10 15 10 10 0 15 -9 14 -27z m-2469 -9 c0 -8 -4
-14 -10 -14 -5 0 -10 9 -10 21 0 11 5 17 10 14 6 -3 10 -13 10 -21z m2130 16
c0 -6 -9 -11 -20 -11 -11 -1 -25 -2 -32 -3 -6 -1 -13 4 -15 9 -1 6 13 11 32
12 19 2 35 -2 35 -7z m-2162 -18 c2 -7 -3 -12 -12 -12 -9 0 -16 7 -16 16 0 17
22 14 28 -4z m886 3 c3 -8 1 -15 -4 -15 -6 0 -10 7 -10 15 0 8 2 15 4 15 2 0
6 -7 10 -15z m473 -1 c2 -6 -5 -14 -17 -17 -11 -3 -20 -4 -20 -2 0 2 -3 10 -6
18 -3 10 2 14 17 13 12 0 24 -6 26 -12z m183 1 c0 -17 -43 -31 -61 -19 -8 4
-9 3 -5 -4 4 -7 2 -12 -3 -12 -15 0 -14 30 2 31 6 1 22 1 35 1 12 -1 20 3 17
8 -4 6 -1 10 4 10 6 0 11 -7 11 -15z m-487 -10 c4 -8 1 -17 -5 -21 -7 -4 -8
-3 -4 4 4 7 2 12 -3 12 -6 0 -11 5 -11 10 0 15 17 12 23 -5z m697 0 c0 -8 -4
-15 -10 -15 -5 0 -10 7 -10 15 0 8 5 15 10 15 6 0 10 -7 10 -15z m475 5 c-3
-5 -10 -10 -16 -10 -5 0 -9 5 -9 10 0 6 7 10 16 10 8 0 12 -4 9 -10z m-1238
-27 c-8 -9 -20 -12 -26 -9 -17 11 -13 26 4 20 8 -4 15 -1 15 6 0 6 5 8 11 4 7
-4 6 -11 -4 -21z m43 6 c0 -6 -4 -7 -10 -4 -5 3 -10 11 -10 16 0 6 5 7 10 4 6
-3 10 -11 10 -16z m-597 -9 c6 -22 -7 -35 -23 -25 -15 9 -12 45 4 45 7 0 16
-9 19 -20z m763 8 c-4 6 -3 12 3 12 13 0 23 -17 14 -23 -5 -2 -20 -7 -35 -11
-23 -5 -28 -3 -28 11 0 15 2 16 10 3 8 -13 10 -12 10 4 0 16 2 17 17 5 11 -10
14 -10 9 -1z m208 -5 c4 -10 4 -14 0 -10 -4 4 -12 3 -18 -2 -20 -17 -61 -17
-61 -1 0 10 10 15 33 14 17 0 32 3 32 8 0 14 7 9 14 -9z m866 2 c0 -8 -7 -15
-15 -15 -8 0 -15 7 -15 15 0 8 7 15 15 15 8 0 15 -7 15 -15z m270 5 c0 -5 -5
-10 -11 -10 -5 0 -7 5 -4 10 3 6 8 10 11 10 2 0 4 -4 4 -10z m-2490 -27 c0
-11 -6 -14 -26 -9 -17 5 -23 3 -19 -4 3 -5 1 -10 -4 -10 -6 0 -11 9 -11 21 0
14 5 19 15 16 8 -4 17 -2 20 4 9 13 25 1 25 -18z m1090 11 c0 -8 -4 -12 -10
-9 -5 3 -10 10 -10 16 0 5 5 9 10 9 6 0 10 -7 10 -16z m410 -6 c0 -19 -2 -20
-10 -8 -13 19 -13 30 0 30 6 0 10 -10 10 -22z m850 18 c0 -3 -4 -8 -10 -11 -5
-3 -10 -1 -10 4 0 6 5 11 10 11 6 0 10 -2 10 -4z m90 -11 c0 -8 -4 -15 -10
-15 -5 0 -10 7 -10 15 0 8 5 15 10 15 6 0 10 -7 10 -15z m-1400 -10 c0 -8 -2
-15 -4 -15 -2 0 -6 7 -10 15 -3 8 -1 15 4 15 6 0 10 -7 10 -15z m24 0 c3 -8 1
-15 -4 -15 -6 0 -10 7 -10 15 0 8 2 15 4 15 2 0 6 -7 10 -15z m416 -6 c0 -5
-4 -9 -10 -9 -5 0 -10 7 -10 16 0 8 5 12 10 9 6 -3 10 -10 10 -16z m678 9 c-6
-16 -33 -22 -56 -13 -15 6 -15 8 3 15 31 13 57 12 53 -2z m-2269 -9 c9 13 31
8 31 -9 0 -14 -52 -22 -61 -9 -11 18 1 35 12 18 8 -12 10 -12 18 0z m1120 -6
c0 -12 -2 -13 -6 -5 -3 9 -9 10 -17 3 -9 -8 -13 -6 -13 4 0 8 9 15 19 15 11 0
18 -7 17 -17z m205 0 c3 -8 1 -11 -4 -8 -6 3 -10 1 -10 -4 0 -19 -16 -12 -17
7 -2 22 24 25 31 5z m196 3 c0 -15 -24 -28 -34 -19 -10 10 -7 25 4 18 6 -3 10
-1 10 4 0 6 5 11 10 11 6 0 10 -6 10 -14z m290 -6 c0 -11 -4 -20 -10 -20 -5 0
-10 9 -10 20 0 11 5 20 10 20 6 0 10 -9 10 -20z m-145 -1 c8 -13 6 -15 -22
-23 -17 -5 -23 -3 -23 7 0 14 13 24 32 26 4 1 10 -4 13 -10z m505 -4 c0 -8 -7
-15 -15 -15 -8 0 -15 7 -15 15 0 8 7 15 15 15 8 0 15 -7 15 -15z m654 3 c-3
-5 -21 -8 -40 -8 -19 0 -34 3 -34 8 0 4 18 7 39 7 22 0 37 -3 35 -7z m-1388
-27 c-12 -18 -66 -14 -66 5 0 14 2 15 17 3 9 -8 14 -9 10 -2 -4 7 0 13 10 16
22 4 38 -7 29 -22z m869 19 c3 -5 -1 -10 -9 -10 -9 0 -16 5 -16 10 0 6 4 10 9
10 6 0 13 -4 16 -10z m-1365 -7 c0 -5 -5 -15 -10 -23 -7 -12 -9 -10 -7 8 1 19
17 33 17 15z m30 -14 c0 -5 -4 -9 -10 -9 -5 0 -10 7 -10 16 0 8 5 12 10 9 6
-3 10 -10 10 -16z m610 -1 c0 -5 -7 -7 -16 -4 -8 3 -12 2 -9 -4 3 -6 -3 -10
-14 -10 -37 0 -51 -10 -41 -30 11 -20 4 -30 -22 -30 -10 0 -18 7 -18 16 0 13
3 14 14 5 10 -9 13 -7 13 6 0 46 3 55 18 49 8 -3 15 0 16 7 0 9 2 9 6 0 3 -10
8 -9 20 2 15 16 33 12 33 -7z m-1080 0 c0 -22 -17 -41 -29 -34 -19 12 -13 46
9 46 11 0 20 -6 20 -12z m627 -20 c-3 -7 -5 -2 -5 12 0 14 2 19 5 13 2 -7 2
-19 0 -25z m233 17 c0 -8 -2 -15 -4 -15 -2 0 -6 7 -10 15 -3 8 -1 15 4 15 6 0
10 -7 10 -15z m855 5 c3 -6 -1 -13 -10 -16 -19 -8 -30 0 -20 15 8 14 22 14 30
1z m258 -10 c-15 -14 -53 -22 -53 -10 0 12 41 30 53 23 5 -3 5 -9 0 -13z
m-1394 -12 c0 -21 -1 -22 -8 -3 -8 19 -8 19 -19 0 -10 -17 -11 -17 -12 -3 0
15 12 25 33 27 4 1 7 -9 6 -21z m214 2 c3 -11 1 -20 -4 -20 -5 0 -9 9 -9 20 0
11 2 20 4 20 2 0 6 -9 9 -20z m184 -5 c-8 -20 -27 -20 -27 1 0 8 5 12 10 9 6
-3 10 -1 10 6 0 7 3 10 6 6 4 -3 4 -13 1 -22z m343 -1 c0 -16 -16 -19 -25 -4
-8 13 4 32 16 25 5 -4 9 -13 9 -21z m-583 -9 c-7 -16 -57 -21 -57 -6 0 5 11 8
25 6 17 -1 25 3 25 13 0 8 3 13 6 9 4 -3 4 -13 1 -22z m33 10 c0 -8 -4 -15
-10 -15 -5 0 -10 7 -10 15 0 8 5 15 10 15 6 0 10 -7 10 -15z m1018 3 c-6 -18
-28 -21 -28 -4 0 9 7 16 16 16 9 0 14 -5 12 -12z m-698 -25 c0 -13 -2 -14 -17
-2 -11 10 -14 10 -9 2 4 -7 2 -13 -3 -13 -15 0 -14 27 2 33 17 6 27 -1 27 -20z
m39 10 c0 -13 -2 -14 -6 -4 -4 10 -7 10 -13 1 -5 -8 -9 -7 -13 4 -5 11 -1 16
13 16 13 0 20 -6 19 -17z m-1469 -2 c0 -5 3 -17 6 -25 5 -12 2 -15 -9 -10 -9
3 -15 14 -14 25 1 19 17 28 17 10z m1010 -6 c0 -8 -2 -15 -4 -15 -2 0 -6 7
-10 15 -3 8 -1 15 4 15 6 0 10 -7 10 -15z m1180 -1 c0 -8 -4 -12 -10 -9 -5 3
-10 10 -10 16 0 5 5 9 10 9 6 0 10 -7 10 -16z m-995 -8 c0 -5 -7 -10 -15 -12
-8 -1 -22 -4 -30 -6 -8 -3 -12 -3 -7 -1 4 3 7 11 7 20 0 9 8 13 23 11 12 -2
22 -7 22 -12z m-1297 -19 c-2 -12 -8 -21 -14 -20 -6 1 -34 -4 -62 -11 -55 -15
-62 -13 -62 18 1 21 1 21 15 2 13 -17 15 -17 15 -4 0 24 18 32 36 17 8 -7 14
-8 13 -3 -3 17 1 19 32 21 26 2 30 -1 27 -20z m430 -10 c-5 -34 -28 -33 -28 2
0 23 4 29 16 24 8 -3 14 -15 12 -26z m796 26 c-5 -5 -12 -12 -16 -18 -4 -6 -8
-2 -8 8 0 9 7 17 17 17 9 0 12 -3 7 -7z m-263 -23 c6 0 7 5 4 10 -3 6 -1 10 4
10 6 0 11 -7 11 -15 0 -8 -2 -15 -4 -15 -2 0 -12 -3 -22 -7 -12 -4 -15 -3 -10
5 4 7 2 12 -4 12 -6 0 -8 5 -4 12 6 9 9 9 12 0 2 -7 8 -12 13 -12z m809 0 c0
-11 -2 -20 -5 -20 -2 0 -9 9 -15 20 -9 16 -8 20 5 20 8 0 15 -9 15 -20z m-620
-6 c0 -8 -4 -12 -10 -9 -5 3 -10 10 -10 16 0 5 5 9 10 9 6 0 10 -7 10 -16z
m193 8 c4 8 6 7 6 -4 1 -12 -6 -18 -19 -18 -12 0 -20 7 -20 16 0 13 3 14 14 5
11 -9 15 -9 19 1z m197 -5 c0 -7 -18 -18 -40 -24 -40 -10 -58 -3 -44 18 4 8 9
7 15 -2 7 -11 9 -11 9 1 0 13 1 13 10 0 8 -13 10 -12 10 3 0 10 8 17 20 17 11
0 20 -6 20 -13z m-446 -13 c3 -8 2 -12 -4 -9 -6 3 -10 10 -10 16 0 14 7 11 14
-7z m23 -6 c-3 -8 -6 -5 -6 6 -1 11 2 17 5 13 3 -3 4 -12 1 -19z m518 -7 c-6
-5 -24 -12 -41 -15 -24 -5 -33 -3 -37 8 -5 12 0 16 16 16 12 0 29 5 37 10 18
11 39 -5 25 -19z m-1555 -1 c0 -11 -4 -20 -8 -20 -4 0 -8 9 -9 20 -1 11 2 20
8 20 5 0 9 -9 9 -20z m88 -207 c42 -207 46 -237 33 -229 -6 4 -11 22 -11 41 0
18 -6 40 -14 48 -8 8 -13 23 -12 33 2 10 0 24 -5 30 -5 6 -11 42 -15 80 -3 38
-11 74 -17 79 -7 6 -13 21 -13 35 -1 14 -2 32 -4 40 -1 8 -1 29 0 45 2 29 2
28 15 -12 7 -23 27 -108 43 -190z m881 210 c1 20 21 24 21 3 0 -19 -31 -30
-41 -14 -4 6 -5 16 -2 22 4 5 10 1 14 -10 7 -17 8 -17 8 -1z m-1009 -8 c0 -8
-4 -15 -10 -15 -5 0 -10 7 -10 15 0 8 5 15 10 15 6 0 10 -7 10 -15z m980 -6
c0 -5 -4 -9 -10 -9 -5 0 -10 7 -10 16 0 8 5 12 10 9 6 -3 10 -10 10 -16z m190
1 c0 -4 -14 -13 -31 -19 -26 -9 -29 -8 -20 3 6 7 8 16 4 19 -3 4 -1 7 5 7 5 0
13 -6 15 -12 3 -8 6 -5 6 5 1 17 21 15 21 -3z m180 8 c0 7 5 10 10 7 6 -3 10
-11 10 -16 0 -6 -4 -8 -9 -4 -5 3 -12 1 -16 -5 -8 -13 -62 -9 -62 5 0 6 9 12
19 12 10 1 18 -2 18 -8 0 -5 4 -9 10 -9 5 0 7 8 4 18 -5 14 -4 15 5 2 8 -11
11 -12 11 -2z m-1433 -5 c-4 -3 -2 -12 4 -20 9 -10 8 -13 -5 -13 -9 0 -16 6
-16 13 0 14 9 27 18 27 3 0 2 -3 -1 -7z m53 -14 c0 -5 -4 -9 -10 -9 -5 0 -10
7 -10 16 0 8 5 12 10 9 6 -3 10 -10 10 -16z m1135 2 c-8 -14 -35 -14 -35 0 0
6 7 9 15 5 8 -3 15 0 15 6 0 6 3 9 6 5 3 -3 3 -10 -1 -16z m649 4 c3 -9 0 -15
-9 -15 -8 0 -15 7 -15 15 0 8 4 15 9 15 5 0 11 -7 15 -15z m-1374 -25 c0 -21
-27 -35 -33 -17 -2 7 -2 20 1 29 5 21 32 12 32 -12z m888 18 c-4 -17 -20 -28
-30 -22 -14 9 -9 22 10 27 9 3 18 5 20 6 1 0 1 -5 0 -11z m182 0 c0 7 5 10 10
7 19 -12 10 -23 -29 -33 -34 -8 -40 -7 -44 8 -4 14 1 17 19 15 13 -1 24 3 24
9 0 6 5 4 10 -4 7 -11 10 -11 10 -2z m150 -8 c0 -11 -7 -20 -15 -20 -27 0 -18
30 13 39 1 1 2 -8 2 -19z m-1783 -6 c7 -18 -17 -38 -31 -24 -11 11 -1 40 14
40 6 0 13 -7 17 -16z m1516 -30 c1 -4 -8 -9 -20 -10 -27 -5 -32 23 -5 28 16 3
21 0 25 -18z m187 8 c0 -15 -2 -15 -10 -2 -7 11 -10 11 -10 2 0 -7 -4 -10 -10
-7 -16 10 -11 21 10 22 13 1 20 -4 20 -15z m268 -1 c3 -8 -1 -12 -9 -9 -7 2
-15 10 -17 17 -3 8 1 12 9 9 7 -2 15 -10 17 -17z m-1881 -17 c8 -21 -13 -42
-28 -27 -13 13 -5 43 11 43 6 0 13 -7 17 -16z m1523 1 c0 -16 -44 -38 -67 -33
-26 6 -18 23 17 35 46 16 50 16 50 -2z m-1570 -21 c0 -22 -16 -17 -17 6 -1 11
2 18 8 15 5 -4 9 -13 9 -21z m1170 0 c0 -8 -4 -14 -10 -14 -5 0 -10 9 -10 21
0 11 5 17 10 14 6 -3 10 -13 10 -21z m190 14 c0 6 4 12 10 12 14 0 1 -27 -16
-34 -9 -3 -12 -1 -9 4 3 6 1 10 -5 10 -6 0 -8 5 -4 11 4 8 9 7 15 -2 6 -10 9
-11 9 -1z m350 -5 c0 -14 -2 -15 -9 -4 -7 11 -9 11 -14 0 -4 -10 -6 -9 -6 4
-1 9 6 17 14 17 8 0 15 -8 15 -17z m255 6 c10 -15 -1 -23 -20 -15 -9 3 -13 10
-10 16 8 13 22 13 30 -1z m-1455 -25 c0 -27 -19 -42 -30 -24 -11 18 -1 47 16
47 8 0 14 -10 14 -23z m630 8 c0 -22 -36 -27 -44 -5 -4 11 -2 14 9 9 8 -3 15
-1 15 4 0 6 5 10 10 10 6 0 10 -8 10 -18z m-50 -18 c0 -8 -4 -13 -9 -9 -5 3
-12 1 -16 -5 -9 -14 -25 -3 -25 17 0 9 6 13 15 9 8 -3 15 -1 15 5 0 6 5 7 10
4 6 -3 10 -13 10 -21z m220 4 c0 -6 -6 -5 -15 2 -8 7 -15 14 -15 16 0 2 7 1
15 -2 8 -4 15 -11 15 -16z m320 -1 c0 -8 -3 -7 -9 2 -7 11 -10 10 -18 -3 -5
-9 -19 -18 -30 -20 -12 -3 -31 -10 -42 -16 -12 -6 -21 -9 -21 -6 0 2 -3 13 -6
23 -5 15 -4 15 5 3 8 -12 11 -12 11 -1 0 8 6 11 16 7 8 -3 12 -2 9 4 -3 6 0
10 7 11 24 1 50 7 55 13 8 8 23 -3 23 -17z m380 7 c0 -17 -22 -14 -28 4 -2 7
3 12 12 12 9 0 16 -7 16 -16z m40 -5 c0 -5 -7 -9 -15 -9 -15 0 -20 12 -9 23 8
8 24 -1 24 -14z m-1925 -27 c-8 -9 -25 20 -18 31 3 5 10 2 15 -7 6 -10 7 -20
3 -24z m1297 7 c-20 -7 -32 -2 -32 13 0 5 7 8 15 4 8 -3 15 0 15 7 0 7 4 6 10
-3 7 -11 5 -17 -8 -21z m-1322 -9 c0 -12 -104 -30 -114 -20 -17 16 13 38 49
36 19 -1 35 3 35 8 0 4 7 3 15 -4 8 -7 15 -16 15 -20z m934 15 c3 -8 1 -15 -4
-15 -6 0 -10 7 -10 15 0 8 2 15 4 15 2 0 6 -7 10 -15z m166 3 c0 -9 4 -8 10 2
8 13 10 13 10 -1 0 -9 -8 -20 -17 -23 -10 -4 -14 -4 -10 0 4 4 2 13 -4 21 -9
9 -8 13 0 13 6 0 11 -6 11 -12z m480 -12 c0 -8 -10 -18 -22 -21 -13 -4 -31 -9
-40 -11 -11 -4 -18 0 -18 9 0 10 8 14 25 13 13 -2 22 0 20 5 -3 4 1 10 7 12
22 9 28 7 28 -7z m-1470 -15 c0 -15 -30 -41 -46 -41 -8 0 -14 9 -14 21 0 14 5
19 15 16 8 -4 17 -2 20 3 8 13 25 13 25 1z m1060 -3 c0 7 5 10 10 7 16 -10 12
-22 -9 -28 -11 -3 -22 1 -25 8 -7 18 6 28 16 13 6 -10 8 -10 8 0z m-772 -32
c-4 -29 -22 -23 -26 9 -3 19 0 24 13 19 9 -4 15 -15 13 -28z m1241 10 c-2 -2
-13 -6 -23 -8 -24 -4 -33 19 -9 24 18 4 41 -7 32 -16z m-345 -2 c2 -6 -4 -14
-14 -17 -17 -4 -35 15 -24 25 9 9 33 4 38 -8z m-1326 -16 c-2 -13 -10 -24 -18
-24 -8 -1 -17 -3 -20 -4 -12 -6 -56 -8 -69 -4 -11 3 -11 7 -1 19 10 12 16 13
26 4 11 -9 14 -8 14 4 0 14 17 21 58 26 8 0 12 -7 10 -21z m1434 -3 c3 -13 1
-22 -3 -19 -9 5 -13 44 -5 44 2 0 6 -11 8 -25z m-365 0 c0 -8 -4 -15 -9 -15
-4 0 -8 7 -8 15 0 8 4 15 8 15 5 0 9 -7 9 -15z m166 -11 c1 -4 -8 -9 -20 -10
-16 -3 -23 1 -23 12 0 8 4 13 9 9 5 -3 13 0 17 7 7 12 10 9 17 -18z m177 11
c0 -8 -4 -15 -10 -15 -5 0 -10 7 -10 15 0 8 5 15 10 15 6 0 10 -7 10 -15z
m299 8 c-1 -5 -1 -17 0 -28 1 -17 3 -18 11 -5 9 13 10 13 10 -1 0 -30 -26 -49
-100 -73 -41 -14 -77 -23 -81 -20 -12 7 -29 64 -19 64 4 0 15 3 24 6 12 5 16
0 16 -19 0 -14 -6 -28 -12 -31 -7 -3 -4 -4 7 -3 11 2 19 7 18 13 -9 57 -7 69
12 71 19 3 19 3 1 -5 -20 -8 -20 -9 0 -14 21 -5 50 10 52 27 1 10 28 23 50 24
6 1 11 -2 11 -6z m-1549 -35 c0 -8 -60 -22 -67 -14 -3 3 -3 13 1 22 5 12 9 14
20 5 11 -9 15 -8 20 6 6 15 8 15 16 3 6 -8 10 -18 10 -22z m844 15 c-5 -17 -5
-17 9 0 18 21 27 22 27 0 0 -9 -3 -13 -7 -10 -3 4 -12 2 -19 -4 -14 -12 -29 4
-19 21 10 16 15 12 9 -7z m172 -3 c0 -10 -2 -17 -5 -15 -2 3 -11 -1 -19 -8
-11 -9 -11 -4 2 16 22 32 22 32 22 7z m364 4 c0 -8 6 -14 13 -14 8 0 7 -4 -3
-10 -21 -13 -39 -12 -20 1 12 9 11 10 -7 6 -23 -5 -38 6 -29 21 8 14 46 11 46
-4z m-1670 -15 c0 -11 -4 -17 -10 -14 -13 8 -13 35 0 35 6 0 10 -9 10 -21z
m1110 -1 c0 -19 -2 -20 -10 -8 -13 19 -13 30 0 30 6 0 10 -10 10 -22z m516
-14 c12 -10 11 -12 -5 -17 -14 -3 -18 -1 -14 9 4 10 0 12 -11 8 -9 -3 -13 -10
-10 -15 10 -17 -27 -22 -44 -5 -12 12 -13 19 -5 27 8 8 11 6 10 -7 -1 -11 6
-19 18 -21 11 -1 14 0 8 3 -7 3 -13 10 -13 15 0 6 5 7 10 4 6 -3 10 0 10 9 0
17 23 28 29 12 2 -6 10 -16 17 -22z m-1443 -18 c-15 -5 -29 -4 -35 2 -13 13 0
35 18 28 7 -3 17 0 20 6 5 8 10 5 14 -8 6 -14 2 -21 -17 -28z m1077 34 c0 -5
-2 -10 -4 -10 -3 0 -8 5 -11 10 -3 6 -1 10 4 10 6 0 11 -4 11 -10z m-20 -22
c0 -13 -23 -5 -28 10 -2 7 2 10 12 6 9 -3 16 -11 16 -16z m-677 -1 c7 -19 -8
-41 -22 -33 -16 10 -14 46 3 46 8 0 16 -6 19 -13z m955 -12 c-3 -30 -2 -29
-24 -8 -16 17 -13 22 23 32 2 1 2 -10 1 -24z m-371 -17 c-20 -13 -37 -9 -37 8
0 14 3 14 15 4 12 -10 15 -9 15 6 0 16 2 16 10 4 6 -9 5 -17 -3 -22z m176 -1
c-2 -4 -12 -2 -21 5 -12 10 -14 10 -8 1 4 -7 2 -13 -3 -13 -18 0 -12 28 7 32
18 4 34 -11 25 -25z m-1099 -4 c4 -9 3 -20 -1 -24 -14 -13 -61 -21 -67 -11
-10 16 5 44 20 38 7 -3 16 -1 19 4 9 15 22 12 29 -7z m1010 0 c-5 -17 -4 -17
9 0 8 10 18 14 21 9 5 -9 -11 -21 -24 -18 -3 0 -18 -7 -33 -17 -15 -9 -27 -15
-27 -13 0 3 -19 -1 -41 -9 -23 -8 -42 -15 -43 -15 -1 0 -2 9 -2 20 0 21 16 28
17 8 0 -7 4 -4 9 7 5 11 9 14 9 8 1 -7 6 -13 12 -13 5 0 7 5 3 12 -5 8 -2 9 9
5 10 -3 17 -2 17 3 0 5 7 7 15 4 8 -4 15 -1 15 6 0 6 4 9 9 5 5 -3 12 -1 16 5
10 16 15 12 9 -7z m193 -5 c-3 -8 -6 -5 -6 6 -1 11 2 17 5 13 3 -3 4 -12 1
-19z m223 -2 c0 -14 5 -28 12 -32 14 -9 -15 -22 -47 -23 -18 0 -17 1 5 15 14
8 17 13 8 10 -13 -4 -18 1 -19 17 -2 21 -2 21 -6 1 -4 -23 -48 -48 -64 -38 -6
3 -8 12 -5 20 3 8 0 11 -10 7 -7 -3 -14 -9 -14 -15 0 -5 -5 -6 -11 -2 -8 4 -7
9 2 15 8 5 10 9 4 10 -5 0 -1 4 10 8 12 5 26 4 35 -2 8 -6 11 -7 7 -2 -5 6 6
15 30 22 56 17 63 16 63 -11z m-273 -8 c2 -17 0 -19 -7 -8 -5 8 -6 18 -4 22 8
12 10 10 11 -14z m33 1 c0 -5 -4 -9 -10 -9 -5 0 -10 7 -10 16 0 8 5 12 10 9 6
-3 10 -10 10 -16z m-50 -10 c0 -5 -4 -9 -10 -9 -5 0 -10 7 -10 16 0 8 5 12 10
9 6 -3 10 -10 10 -16z m-1292 -21 c-2 -15 -11 -23 -30 -25 -32 -4 -44 10 -23
27 10 9 15 9 15 1 0 -6 5 -11 10 -11 6 0 10 7 10 15 0 8 5 15 11 15 6 0 9 -10
7 -22z m235 3 c4 -16 -2 -21 -25 -26 -35 -8 -43 -2 -33 22 5 12 9 14 12 6 7
-18 23 -16 23 2 0 22 17 18 23 -4z m277 -6 c0 -30 -15 -33 -30 -6 -14 27 -13
31 10 31 15 0 20 -7 20 -25z m-420 -33 c0 -4 -11 -12 -25 -19 -14 -6 -25 -10
-25 -8 0 2 -3 11 -7 20 -5 14 -2 16 15 10 14 -4 22 -2 22 5 0 6 5 8 10 5 6 -3
10 -9 10 -13z m-80 -6 c0 -2 3 -11 6 -20 4 -12 0 -16 -15 -16 -12 0 -21 6 -21
13 0 9 -2 9 -9 -1 -7 -11 -9 -11 -14 2 -4 9 1 16 11 19 24 7 42 8 42 3z m220
-32 c-17 -8 -34 -13 -38 -12 -4 1 -15 -2 -24 -6 -21 -9 -48 -1 -48 14 0 10 20
14 53 12 9 -1 17 3 17 9 0 6 7 9 15 6 8 -4 17 -2 21 4 4 6 11 6 20 -2 13 -10
10 -14 -16 -25z m304 20 c9 -24 7 -34 -8 -34 -16 0 -29 27 -20 41 8 14 21 11
28 -7z m-509 -59 c0 -21 -53 -41 -69 -25 -11 11 12 43 24 35 5 -3 12 -1 15 5
10 16 30 6 30 -15z m565 -11 c0 -17 -22 -18 -37 -3 -9 9 -8 15 0 24 14 15 37
1 37 -21z m-410 -4 c0 -17 -38 -36 -90 -44 -3 -1 -11 -5 -18 -10 -17 -10 -37
7 -29 26 7 20 99 40 109 25 5 -8 8 -6 8 6 0 9 5 17 10 17 6 0 10 -9 10 -20z
m468 -23 c10 -8 10 -12 1 -18 -18 -11 -49 8 -43 26 6 14 15 13 42 -8z m269 7
c9 -23 -13 -40 -32 -24 -12 10 -13 16 -4 26 15 18 28 18 36 -2z m-684 -29 c-7
-21 -13 -19 -13 6 0 11 4 18 10 14 5 -3 7 -12 3 -20z m41 10 c3 -8 1 -15 -3
-15 -5 0 -11 7 -15 15 -3 8 -1 15 3 15 5 0 11 -7 15 -15z m449 -10 c1 -6 -10
-11 -25 -13 -22 -3 -26 0 -21 17 4 15 10 18 25 12 11 -4 20 -11 21 -16z m132
14 c8 -13 6 -15 -23 -24 -16 -5 -22 -3 -20 7 5 25 32 36 43 17z m-65 -14 c0
-9 -9 -15 -25 -15 -18 0 -23 4 -19 15 4 8 15 15 25 15 10 0 19 -7 19 -15z
m-590 -15 c0 -22 -25 -28 -33 -7 -3 7 -6 5 -6 -5 -1 -10 -7 -18 -13 -18 -7 0
-23 -3 -35 -6 -17 -5 -23 -2 -23 10 0 22 30 33 41 15 5 -8 9 -11 10 -6 2 10 6
26 8 30 0 1 12 4 26 5 19 1 25 -3 25 -18z m-246 -5 c3 -8 1 -15 -3 -15 -5 0
-11 7 -15 15 -3 8 -1 15 3 15 5 0 11 -7 15 -15z m366 -15 c0 -11 -4 -20 -9
-20 -6 0 -9 9 -8 20 1 11 5 20 9 20 4 0 8 -9 8 -20z m-240 -12 c0 -19 -2 -20
-10 -8 -13 19 -13 30 0 30 6 0 10 -10 10 -22z m210 -11 c0 -5 -4 -6 -10 -2 -5
3 -18 0 -29 -7 -24 -15 -36 -6 -27 19 5 13 9 14 15 5 6 -10 11 -9 21 3 11 13
15 13 21 3 5 -7 9 -17 9 -21z m-272 -64 c-4 -22 -22 -20 -26 1 -2 10 3 16 13
16 10 0 15 -7 13 -17z"/>
<path d="M1346 1268 c3 -5 10 -6 15 -3 13 9 11 12 -6 12 -8 0 -12 -4 -9 -9z"/>
<path d="M257 1073 c-12 -11 -8 -23 8 -23 8 0 15 7 15 15 0 16 -12 20 -23 8z"/>
<path d="M1827 430 c3 -11 7 -20 9 -20 2 0 4 9 4 20 0 11 -4 20 -9 20 -5 0 -7
-9 -4 -20z"/>
<path d="M1790 386 c0 -14 5 -17 23 -12 12 3 25 6 30 6 4 0 7 5 7 10 0 7 -7 7
-21 -1 -17 -9 -23 -8 -30 2 -7 11 -9 10 -9 -5z"/>
<path d="M997 184 c-8 -8 1 -24 14 -24 5 0 9 7 9 15 0 15 -12 20 -23 9z"/>
<path d="M2980 1056 c0 -8 5 -18 10 -21 6 -3 10 3 10 14 0 12 -4 21 -10 21 -5
0 -10 -6 -10 -14z"/>
</g>
</svg>
